<?xml version="1.0" encoding="UTF-8"?>
<svg version="1.1" xmlns="http://www.w3.org/2000/svg" width="184" height="184">
<path d="M0 0 C3.96 0 7.92 0 12 0 C14.62932042 8.27501857 16.9640941 16.56084168 19 25 C19.56068433 27.25045314 20.12313864 29.50046616 20.6875 31.75 C21.125 33.5 21.5625 35.25 22 37 C24.0039489 29.15930672 25.99192232 21.34902343 27.49609375 13.39453125 C28.44725845 8.87465559 29.7338024 4.44013292 31 0 C32.93559313 -0.13504138 34.873872 -0.23201129 36.8125 -0.3125 C37.89144531 -0.37050781 38.97039062 -0.42851563 40.08203125 -0.48828125 C43 0 43 0 44.76171875 1.89453125 C46.1264629 5.3171546 46.84663611 8.56818699 47.49511719 12.18652344 C48.02591792 15.14442849 48.64624281 18.07230064 49.2890625 21.0078125 C49.50820312 22.01328125 49.72734375 23.01875 49.953125 24.0546875 C50.17484375 25.06789063 50.3965625 26.08109375 50.625 27.125 C50.96917969 28.7028125 50.96917969 28.7028125 51.3203125 30.3125 C51.87944023 32.87516877 52.43934887 35.43766416 53 38 C55.60364783 30.6822733 57.41307427 23.30061607 59.10546875 15.72851562 C60.35719011 10.27914269 61.91640094 5.19082673 64 0 C67.63 0 71.26 0 75 0 C75.50256328 7.30920984 73.68366657 13.27055454 71.4375 20.1875 C71.07906006 21.31994141 70.72062012 22.45238281 70.35131836 23.61914062 C69.24890108 27.08436596 68.12805451 30.54304278 67 34 C66.65356445 35.06428223 66.30712891 36.12856445 65.95019531 37.22509766 C60.41206196 54.17587609 60.41206196 54.17587609 59 57 C55.04 57 51.08 57 47 57 C42.78570181 44.95914801 39.98836714 32.59299188 38 20 C37.34 20 36.68 20 36 20 C36.03013184 21.01602295 36.06026367 22.0320459 36.09130859 23.07885742 C36.00257526 26.88940824 35.45979219 30.05033842 34.5390625 33.73828125 C34.23226562 34.96998047 33.92546875 36.20167969 33.609375 37.47070312 C33.28453125 38.73849609 32.9596875 40.00628906 32.625 41.3125 C32.30409623 42.6124844 31.98377863 43.91261363 31.6640625 45.21289062 C29.25796644 54.74203356 29.25796644 54.74203356 27 57 C24.3984375 57.1953125 24.3984375 57.1953125 21.375 57.125 C20.37210938 57.10695312 19.36921875 57.08890625 18.3359375 57.0703125 C17.17964844 57.03550781 17.17964844 57.03550781 16 57 C13.3809623 51.25552456 11.49001885 45.42059827 9.6875 39.375 C9.3877124 38.37605713 9.0879248 37.37711426 8.77905273 36.34790039 C8.15781061 34.27027965 7.53909943 32.19190053 6.92285156 30.11279297 C6.3161985 28.06654256 5.70626751 26.02126058 5.09277344 23.97705078 C4.24030283 21.13312197 3.3995075 18.28601324 2.5625 15.4375 C2.30364014 14.57624512 2.04478027 13.71499023 1.77807617 12.82763672 C1.5432251 12.01697754 1.30837402 11.20631836 1.06640625 10.37109375 C0.85959229 9.66911865 0.65277832 8.96714355 0.43969727 8.24389648 C0 6 0 6 0 0 Z " fill="#FFFFFF" transform="translate(57,43)"/>
<path d="M0 0 C4.34291805 0.53256221 7.4226609 1.54007932 11.1875 3.75 C49.04848772 25.00263444 96.31535845 29.84394339 138.11328125 18.53222656 C144.70885681 16.67167342 151.06475994 14.41286505 157.375 11.75 C161.05635185 10.23833378 163.96644681 9.4828778 168 10 C169 11 169 11 169.5 13.1875 C168.82184371 17.00212913 167.16212141 18.18407551 164.18359375 20.52734375 C160.32937848 23.12669824 156.1976122 25.027628 152 27 C151.28247559 27.38051514 150.56495117 27.76103027 149.82568359 28.15307617 C143.77252687 31.32874706 137.85505634 33.46546745 131.25 35.1875 C129.9196875 35.5577832 129.9196875 35.5577832 128.5625 35.93554688 C116.42314738 39.18715919 104.35558659 40.37186954 91.8125 40.3125 C90.54946045 40.30686035 89.2864209 40.3012207 87.98510742 40.29541016 C64.67744704 39.99520309 44.39024875 34.18420361 24 23 C23.07703125 22.49597656 22.1540625 21.99195313 21.203125 21.47265625 C14.46310454 17.59821774 7.89898631 13.06785765 2 8 C2 7.34 2 6.68 2 6 C1.34 6 0.68 6 0 6 C0 4.02 0 2.04 0 0 Z " fill="#FF9900" transform="translate(0,114)"/>
<path d="M0 0 C0.97259766 -0.02449219 1.94519531 -0.04898438 2.94726562 -0.07421875 C9.26073732 -0.09986589 13.00803733 0.71975856 18.1875 4.375 C18.1875 5.035 18.1875 5.695 18.1875 6.375 C18.8475 6.375 19.5075 6.375 20.1875 6.375 C23.34584241 14.16557795 23.65832687 21.21151443 23.75 29.5625 C23.78457549 32.03528786 23.82725809 34.50797857 23.87890625 36.98046875 C23.89123291 38.06481201 23.90355957 39.14915527 23.91625977 40.26635742 C24.2046807 43.57190538 25.07978974 46.25978718 26.1875 49.375 C26.3125 52.25 26.3125 52.25 26.1875 54.375 C25.5275 54.375 24.8675 54.375 24.1875 54.375 C24.1875 55.035 24.1875 55.695 24.1875 56.375 C20.71398925 58.69067384 19.27350528 58.97087577 15.1875 58.375 C13.3125 55.875 13.3125 55.875 12.1875 53.375 C11.66800781 53.72433594 11.14851563 54.07367188 10.61328125 54.43359375 C3.54447663 59.0459561 -2.37301432 60.16128749 -10.8125 59.375 C-13.36132587 58.59769849 -15.43626183 57.61477644 -17.8125 56.375 C-17.8125 55.715 -17.8125 55.055 -17.8125 54.375 C-18.8025 54.045 -19.7925 53.715 -20.8125 53.375 C-24.03517668 47.64579701 -24.39903928 41.65064425 -22.8125 35.375 C-21.25 31.8125 -21.25 31.8125 -19.8125 29.375 C-19.1525 29.375 -18.4925 29.375 -17.8125 29.375 C-17.8125 28.715 -17.8125 28.055 -17.8125 27.375 C-9.12981084 22.89361205 0.68167332 21.49515596 10.1875 24.375 C10.04581863 22.93708484 9.89898957 21.4996763 9.75 20.0625 C9.66878906 19.26199219 9.58757813 18.46148437 9.50390625 17.63671875 C9.23484307 15.21412821 9.23484307 15.21412821 8.1875 12.375 C1.08715305 9.68500072 -6.71998274 11.30038048 -13.5859375 13.81640625 C-16.06766926 14.43901615 -17.42146239 14.19930749 -19.8125 13.375 C-20.24646732 8.08059871 -20.24646732 8.08059871 -19.8125 5.375 C-17.5625 3.5 -17.5625 3.5 -14.8125 2.375 C-14.19802002 2.02872559 -13.58354004 1.68245117 -12.95043945 1.32568359 C-8.8763866 -0.48593703 -4.39135498 0.00575161 0 0 Z M-8.8125 35.375 C-10.60188667 39.09141847 -11.10644112 41.17251361 -10.125 45.1875 C-8.85709233 47.65444525 -8.85709233 47.65444525 -5.8125 49.375 C-0.83076648 49.94981541 2.51912717 49.28797643 6.67578125 46.64453125 C9.14924879 44.56732983 10.14217893 42.38798426 11.1875 39.375 C11.22860989 37.70884042 11.23542152 36.04097758 11.1875 34.375 C0.83996839 31.94712912 0.83996839 31.94712912 -8.8125 35.375 Z " fill="#FFFFFF" transform="translate(29.8125,41.625)"/>
<path d="M0 0 C1.38638672 -0.01740234 1.38638672 -0.01740234 2.80078125 -0.03515625 C8.02699601 -0.01272614 12.11150585 0.2067213 16.5 3.375 C17.66442585 6.15879017 17.45026006 8.29112391 17.5 11.375 C16.5 12.375 16.5 12.375 13.375 12.5625 C9.5 12.375 9.5 12.375 6.0625 11.3125 C0.843912 9.93918737 -3.36176114 10.66225371 -8.5 12.375 C-8.5 14.685 -8.5 16.995 -8.5 19.375 C-4.15612619 21.83952944 0.69066388 22.96287865 5.48046875 24.25585938 C11.1344597 25.91159496 15.45208496 28.2373687 18.77734375 33.33203125 C20.60927564 38.48095225 20.79414738 42.02585749 19.5 47.375 C16.94807129 52.19530978 13.87856066 55.24745667 9.5 58.375 C-0.04799576 61.04576805 -11.99640482 60.30161783 -21 56.25 C-23.45907204 53.17615995 -22.75190142 50.21649667 -22.5 46.375 C-15.22156863 46.12401961 -15.22156863 46.12401961 -11.625 47.375 C-6.24933736 49.09521205 -0.74941898 49.09481407 4.625 47.375 C5.553125 46.88 5.553125 46.88 6.5 46.375 C7.00169415 43.54426564 7.00169415 43.54426564 6.5 40.375 C2.70784321 36.97178237 -1.43091704 35.63748794 -6.19140625 34.15234375 C-11.64525235 32.31593872 -16.888704 29.99745888 -20.5 25.375 C-22.26343878 19.90833977 -22.23934662 13.68545819 -20.5 8.25 C-20.17 7.63125 -19.84 7.0125 -19.5 6.375 C-18.84 6.375 -18.18 6.375 -17.5 6.375 C-17.17 5.385 -16.84 4.395 -16.5 3.375 C-11.23935981 -0.26304013 -6.14804754 -0.07717214 0 0 Z " fill="#FFFFFF" transform="translate(157.5,41.625)"/>
<path d="M0 0 C0.98742187 0.00966797 1.97484375 0.01933594 2.9921875 0.02929688 C10.15941036 0.14220518 10.15941036 0.14220518 12.5 1.3125 C13.26675681 18.67102216 13.26675681 18.67102216 8.5 26.3125 C7.79423828 27.55193359 7.79423828 27.55193359 7.07421875 28.81640625 C3.26989985 35.09795607 3.26989985 35.09795607 -0.19140625 36.0625 C-0.95324219 36.145 -1.71507812 36.2275 -2.5 36.3125 C-3.38725556 33.84727726 -3.61054304 32.63889286 -2.7578125 30.12109375 C-2.38398438 29.33863281 -2.01015625 28.55617187 -1.625 27.75 C0.72914192 22.30300266 1.2761181 17.2005939 1.5 11.3125 C-3.39176638 8.65899525 -7.95652407 9.28809836 -13.3125 9.6875 C-14.63797852 9.77257812 -14.63797852 9.77257812 -15.99023438 9.859375 C-18.1608451 10.00017137 -20.33054071 10.1549534 -22.5 10.3125 C-22.625 7.5625 -22.625 7.5625 -21.5 4.3125 C-14.97691254 -0.10171443 -7.60160161 -0.23050679 0 0 Z " fill="#FF9800" transform="translate(171.5,110.6875)"/>
</svg>
