<?xml version="1.0" encoding="UTF-8"?>
<svg version="1.1" xmlns="http://www.w3.org/2000/svg" width="184" height="184">
<path d="M0 0 C1.10794922 -0.01260864 2.21589844 -0.02521729 3.35742188 -0.03820801 C4.54916016 -0.03011108 5.74089844 -0.02201416 6.96875 -0.01367188 C8.19658203 -0.01749878 9.42441406 -0.02132568 10.68945312 -0.02526855 C13.28516459 -0.02799029 15.88090336 -0.02061099 18.4765625 -0.00390625 C22.45374599 0.01749738 26.42912282 -0.0037015 30.40625 -0.02929688 C32.92708733 -0.02665365 35.44792353 -0.02152878 37.96875 -0.01367188 C39.16048828 -0.0217688 40.35222656 -0.02986572 41.58007812 -0.03820801 C43.24200195 -0.01929504 43.24200195 -0.01929504 44.9375 0 C46.39833008 0.00477356 46.39833008 0.00477356 47.88867188 0.00964355 C51.20651256 0.66281989 52.36301774 1.92637403 54.46875 4.51757812 C58.18130215 12.09377467 60.34301432 20.33990027 62.5703125 28.44726562 C63.43695812 31.63661625 63.43695812 31.63661625 64.96875 35.01757812 C66.42565154 38.41701506 67.41602918 41.70740677 68.40625 45.26757812 C70.43754419 52.55407659 72.90020951 59.5686647 75.69140625 66.59570312 C77.87492073 72.12460218 79.83533674 77.5939633 81.40625 83.33007812 C82.83007715 88.52387677 84.52749941 93.50288174 86.46875 98.51757812 C88.87078181 104.72957425 90.84909967 110.96387397 92.5859375 117.40039062 C93.35612996 120.11991976 94.26907571 122.6947775 95.28125 125.33007812 C96.78240524 129.71049834 96.94842719 134.08791161 95.46875 138.51757812 C92.04187252 140.80216311 90.82934689 140.76209265 86.80395508 140.74462891 C85.64297806 140.74447784 84.48200104 140.74432678 83.2858429 140.74417114 C82.03264755 140.73384857 80.77945221 140.723526 79.48828125 140.71289062 C78.20515549 140.71006073 76.92202972 140.70723083 75.60002136 140.70431519 C72.19198798 140.6966861 68.78412559 140.677044 65.37615967 140.65490723 C61.89728102 140.6344331 58.41837468 140.62531013 54.93945312 140.61523438 C48.11581526 140.5937973 41.29229084 140.55967017 34.46875 140.51757812 C34.46875 139.85757813 34.46875 139.19757813 34.46875 138.51757812 C33.57929688 138.12119141 33.57929688 138.12119141 32.671875 137.71679688 C30.38845946 136.47387387 28.99448277 135.21356167 27.21875 133.33007812 C22.87270727 128.85402557 18.21530741 124.78556871 13.40625 120.81445312 C12.766875 120.28335938 12.1275 119.75226563 11.46875 119.20507812 C10.6025 118.49931641 10.6025 118.49931641 9.71875 117.77929688 C8.46875 116.51757812 8.46875 116.51757812 8.46875 114.51757812 C7.14875 114.18757813 5.82875 113.85757813 4.46875 113.51757812 C4.1284375 115.28101563 4.1284375 115.28101563 3.78125 117.08007812 C2.76826603 121.58462386 1.48803183 125.99318639 0.09375 130.39257812 C-0.10307373 131.04685791 -0.29989746 131.7011377 -0.50268555 132.37524414 C-1.81156953 136.38925902 -2.78594184 138.53347184 -6.53125 140.51757812 C-9.61727941 140.94953996 -12.6735405 140.91392148 -15.78515625 140.88085938 C-16.68241928 140.88135788 -17.57968231 140.88185638 -18.50413513 140.88237 C-20.39788024 140.88003269 -22.29162863 140.87032439 -24.18530273 140.85375977 C-27.08670755 140.83013547 -29.98719511 140.83320534 -32.88867188 140.83984375 C-34.72917215 140.83426784 -36.56966856 140.82715851 -38.41015625 140.81835938 C-39.27894913 140.81927078 -40.147742 140.82018219 -41.04286194 140.82112122 C-41.85057541 140.8115892 -42.65828888 140.80205719 -43.49047852 140.79223633 C-44.55492943 140.78532524 -44.55492943 140.78532524 -45.6408844 140.77827454 C-47.53125 140.51757812 -47.53125 140.51757812 -50.53125 138.51757812 C-52.77866652 130.37069323 -50.03004561 123.56293667 -47.35205078 115.88916016 C-46.46790661 113.3345568 -45.61970587 110.76984496 -44.77734375 108.20117188 C-42.11862627 100.10760654 -39.40447372 92.04806742 -36.4296875 84.06445312 C-35.34587592 80.99208292 -34.40746488 77.88721704 -33.46875 74.76757812 C-32.45901165 71.41618976 -31.43264519 68.29160876 -30.03125 65.08007812 C-28.10952228 60.5159748 -26.89161829 55.83899792 -25.56640625 51.07226562 C-24.39100583 47.03598493 -22.9942341 43.12779825 -21.51953125 39.19335938 C-20.52673976 36.50536662 -19.61343316 33.80219922 -18.71875 31.08007812 C-17.98958333 28.89257812 -17.26041667 26.70507812 -16.53125 24.51757812 C-16.26908691 23.7194873 -16.00692383 22.92139648 -15.73681641 22.09912109 C-14.84678846 19.40117723 -13.94005948 16.70924733 -13.03125 14.01757812 C-12.74660889 13.14431885 -12.46196777 12.27105957 -12.16870117 11.37133789 C-11.88615479 10.54303467 -11.6036084 9.71473145 -11.3125 8.86132812 C-11.06564453 8.12076172 -10.81878906 7.38019531 -10.56445312 6.6171875 C-8.12781943 1.66561619 -5.44314711 0.01778659 0 0 Z M22.46875 62.51757812 C20.22217738 64.76415075 19.91384781 65.94001265 19.09375 68.95507812 C17.73013149 73.77319685 16.05390695 78.40739959 14.23828125 83.07226562 C13.26862788 85.7262427 13.26862788 85.7262427 13.46875 89.51757812 C19.40875 89.51757812 25.34875 89.51757812 31.46875 89.51757812 C30.67263629 84.74089584 29.69620637 81.05125176 28.03125 76.58007812 C26.3039396 71.92407426 24.78246604 67.30194863 23.46875 62.51757812 C23.13875 62.51757812 22.80875 62.51757812 22.46875 62.51757812 Z " fill="#0B59A2" transform="translate(69.53125,21.482421875)"/>
<path d="M0 0 C7.04740116 -0.10137004 14.09461452 -0.17145284 21.14257812 -0.21972656 C23.54043606 -0.23984936 25.93824488 -0.26715059 28.3359375 -0.30175781 C31.78137323 -0.3502449 35.22616052 -0.37296241 38.671875 -0.390625 C40.28144073 -0.42159271 40.28144073 -0.42159271 41.92352295 -0.45318604 C43.42462616 -0.45363922 43.42462616 -0.45363922 44.95605469 -0.45410156 C45.83541687 -0.46298401 46.71477905 -0.47186646 47.62078857 -0.48101807 C50.79967938 0.16167551 51.9638561 1.53300499 54 4 C57.71255215 11.57619654 59.87426432 19.82232214 62.1015625 27.9296875 C62.96820812 31.11903813 62.96820812 31.11903813 64.5 34.5 C65.95690154 37.89943693 66.94727918 41.18982865 67.9375 44.75 C69.96879419 52.03649847 72.43145951 59.05108657 75.22265625 66.078125 C77.40617073 71.60702406 79.36658674 77.07638518 80.9375 82.8125 C82.36132715 88.00629864 84.05874941 92.98530361 86 98 C88.40203181 104.21199612 90.38034967 110.44629585 92.1171875 116.8828125 C92.88737996 119.60234164 93.80032571 122.17719938 94.8125 124.8125 C96.31365524 129.19292022 96.47967719 133.57033349 95 138 C91.75715221 140.16189853 90.89903779 140.24626755 87.16137695 140.22705078 C85.69019157 140.22682419 85.69019157 140.22682419 84.18928528 140.22659302 C82.60478828 140.21110916 82.60478828 140.21110916 80.98828125 140.1953125 C79.90491989 140.1924826 78.82155853 140.18965271 77.70536804 140.18673706 C74.24096692 140.17553091 70.77682315 140.15042534 67.3125 140.125 C64.96549852 140.11497077 62.618493 140.10584482 60.27148438 140.09765625 C54.51423493 140.07559016 48.75713585 140.04210827 43 140 C43.72896484 138.85724609 43.72896484 138.85724609 44.47265625 137.69140625 C46.92519921 133.36966174 46.54071705 129.96321882 45.23828125 125.234375 C43.38328686 119.51541995 41.21107113 113.94127316 38.9453125 108.375 C36.52656045 102.29813536 34.69304862 96.51465705 34 90 C33.01 89.67 32.02 89.34 31 89 C30.15625 87.37695313 30.15625 87.37695313 29.5 85.28125 C29.2525 84.51296875 29.005 83.7446875 28.75 82.953125 C28.5025 82.14359375 28.255 81.3340625 28 80.5 C27.7525 79.72140625 27.505 78.9428125 27.25 78.140625 C26.74598153 76.5550669 26.24736236 74.96778327 25.75390625 73.37890625 C24.81072696 70.40276019 23.78697358 67.45695073 22.74609375 64.51367188 C22.07708684 62.25971405 21.56583505 60.03959826 21.07763672 57.74145508 C20.1053037 53.27178577 18.79424301 48.99451511 17.3203125 44.66796875 C17.06627655 43.91010574 16.8122406 43.15224274 16.55050659 42.37141418 C15.74627613 39.97531393 14.93580392 37.58138283 14.125 35.1875 C13.32514417 32.81046026 12.52654627 30.43300105 11.72821045 28.05545044 C11.20986423 26.5161113 10.68910432 24.97758264 10.16583252 23.43991089 C9.01991586 20.06923425 7.90827399 16.7002906 6.86621094 13.29541016 C6.5365332 12.22468262 6.20685547 11.15395508 5.8671875 10.05078125 C5.5976123 9.13594971 5.32803711 8.22111816 5.05029297 7.27856445 C3.81382017 4.59609105 2.38832268 3.66043227 0 2 C0 1.34 0 0.68 0 0 Z " fill="#31AEE9" transform="translate(70,22)"/>
<path d="M0 0 C1.27580933 -0.00688843 1.27580933 -0.00688843 2.57739258 -0.01391602 C8.50261304 0.00130652 8.50261304 0.00130652 10.75 1.125 C13.40945027 6.87969281 15.0570354 13.09549351 16.75 19.1875 C18.17834374 24.32502097 19.8460707 29.22524727 21.91796875 34.13671875 C23.67629903 38.33855026 24.14278775 41.56866215 23.75 46.125 C22.3125 49.0625 22.3125 49.0625 19.75 51.125 C16.70411663 51.53391377 13.80284611 51.4185429 10.75 51.125 C10.75 50.465 10.75 49.805 10.75 49.125 C9.86054687 48.72861328 9.86054687 48.72861328 8.953125 48.32421875 C6.66970946 47.08129575 5.27573277 45.82098354 3.5 43.9375 C-0.84604273 39.46144744 -5.50344259 35.39299059 -10.3125 31.421875 C-10.951875 30.89078125 -11.59125 30.3596875 -12.25 29.8125 C-12.8275 29.34199219 -13.405 28.87148437 -14 28.38671875 C-15.25 27.125 -15.25 27.125 -15.25 25.125 C-15.86875 24.8775 -16.4875 24.63 -17.125 24.375 C-19.25 23.125 -19.25 23.125 -19.96875 21.41796875 C-22.24812016 17.33873009 -26.17821806 14.61043422 -29.7265625 11.63476562 C-34.14743297 7.75170194 -34.14743297 7.75170194 -34.7109375 4.30859375 C-34.25 2.125 -34.25 2.125 -33.25 1.125 C-31.8526022 0.96697774 -30.44775818 0.87384941 -29.04296875 0.80859375 C-28.15512695 0.76653809 -27.26728516 0.72448242 -26.35253906 0.68115234 C-24.90959473 0.62241943 -24.90959473 0.62241943 -23.4375 0.5625 C-21.96941895 0.4998999 -21.96941895 0.4998999 -20.47167969 0.43603516 C-13.64794595 0.16734104 -6.82891585 0.02076423 0 0 Z " fill="#0074CD" transform="translate(93.25,110.875)"/>
</svg>
