<?xml version="1.0" encoding="UTF-8"?>
<svg version="1.1" xmlns="http://www.w3.org/2000/svg" width="184" height="184">
<path d="M0 0 C2.27413385 1.029226 2.27413385 1.029226 4.16625977 -0.18994141 C6.56755066 -1.38907902 8.15699934 -1.53701729 10.82421875 -1.6015625 C11.68208984 -1.63121094 12.53996094 -1.66085937 13.42382812 -1.69140625 C14.31263672 -1.71332031 15.20144531 -1.73523438 16.1171875 -1.7578125 C22.23531926 -1.91065341 27.41147969 -2.45083589 33.3046875 -4.2578125 C39.14025506 -5.18794865 44.83913606 -5.44054813 50.7421875 -5.4453125 C51.53689453 -5.45755859 52.33160156 -5.46980469 53.15039062 -5.48242188 C60.4933908 -5.5003462 67.43521544 -4.4314393 74.1171875 -1.2578125 C75.17873047 -0.7628125 75.17873047 -0.7628125 76.26171875 -0.2578125 C76.93589844 0.0721875 77.61007813 0.4021875 78.3046875 0.7421875 C79.03042969 1.0721875 79.75617188 1.4021875 80.50390625 1.7421875 C82.3046875 2.7421875 82.3046875 2.7421875 83.3046875 4.7421875 C84.2946875 5.0721875 85.2846875 5.4021875 86.3046875 5.7421875 C87.91089653 7.49774579 89.44501239 9.32021656 90.9296875 11.1796875 C91.72632813 12.16839844 92.52296875 13.15710938 93.34375 14.17578125 C99.26088466 21.91991964 96.95319829 35.44640919 96.3046875 44.7421875 C95.47381306 50.28135044 93.88205887 55.52367489 92.00146484 60.78857422 C91.32800753 62.67680318 90.71552522 64.58643816 90.10546875 66.49609375 C87.36213456 74.79900887 83.65746534 82.19068242 79.3046875 89.7421875 C80.26890625 89.75636719 81.233125 89.77054687 82.2265625 89.78515625 C83.48984375 89.83285156 84.753125 89.88054687 86.0546875 89.9296875 C87.30765625 89.96449219 88.560625 89.99929687 89.8515625 90.03515625 C93.3046875 90.7421875 93.3046875 90.7421875 95.73046875 93.04296875 C97.23049726 95.61497793 97.83026815 96.82965404 97.7421875 99.7421875 C97.74025391 100.70125 97.74025391 100.70125 97.73828125 101.6796875 C96.44300682 107.8409929 92.06733374 110.85985133 87.11328125 114.16015625 C79.18176678 118.62783825 71.22930762 119.12371599 62.3046875 118.7421875 C62.32563477 119.32073486 62.34658203 119.89928223 62.36816406 120.49536133 C63.05249433 142.26182813 63.05249433 142.26182813 58.3046875 150.7421875 C57.91539062 151.474375 57.52609375 152.2065625 57.125 152.9609375 C53.1568205 159.25367186 47.24701246 162.43088076 40.3046875 164.7421875 C34.3850026 165.75803466 29.18024936 165.67015384 23.8671875 162.6796875 C20.11449536 159.89818898 17.56760899 156.80736432 15.3046875 152.7421875 C14.923125 152.10410156 14.5415625 151.46601563 14.1484375 150.80859375 C9.72535362 141.94662927 10.45979023 131.43075999 10.3046875 121.7421875 C8.8196875 122.2371875 8.8196875 122.2371875 7.3046875 122.7421875 C4.37113236 122.96674241 1.43348277 122.92733634 -1.5078125 122.9296875 C-2.30251953 122.94193359 -3.09722656 122.95417969 -3.91601562 122.96679688 C-8.61899409 122.9784668 -12.23988114 122.4037619 -16.6953125 120.7421875 C-19.39825452 121.04934 -21.27288742 121.53097496 -23.6953125 122.7421875 C-28.76483924 123.24748347 -33.24487743 123.38372609 -37.9453125 121.3046875 C-46.65928234 113.18485197 -52.11651214 103.03245054 -55.6953125 91.7421875 C-56.08589844 90.55625 -56.47648437 89.3703125 -56.87890625 88.1484375 C-59.69860122 79.43301668 -62.05265751 70.76756153 -63.6953125 61.7421875 C-63.83743164 60.98389648 -63.97955078 60.22560547 -64.12597656 59.44433594 C-67.28258219 42.27049235 -68.66835444 24.55183281 -59.6953125 8.7421875 C-59.0353125 8.7421875 -58.3753125 8.7421875 -57.6953125 8.7421875 C-57.6953125 7.7521875 -57.6953125 6.7621875 -57.6953125 5.7421875 C-43.81233445 -9.76164586 -17.70292737 -8.26136611 0 0 Z " fill="#F6FAFC" transform="translate(72.6953125,16.2578125)"/>
<path d="M0 0 C5.99324651 4.7300959 11.00441589 11.60009308 13.9921875 18.625 C13.9921875 19.615 13.9921875 20.605 13.9921875 21.625 C12.99638672 21.86283203 12.99638672 21.86283203 11.98046875 22.10546875 C6.37241139 23.5873058 2.67586028 24.87187383 -1.0078125 29.625 C-4.46102378 39.98463384 -2.05013959 49.15148738 2.63427734 58.53833008 C5.35504419 63.72985061 8.42172851 68.66136242 11.83984375 73.42578125 C12.9921875 75.625 12.9921875 75.625 12.69116211 77.49902344 C11.95678875 79.73266758 10.98654577 81.72510837 9.9609375 83.83984375 C7.03544725 91.04135518 7.46001668 98.54693102 7.4921875 106.1875 C7.57694094 126.36550926 7.57694094 126.36550926 0.921875 134 C-0.09519531 134.804375 -0.09519531 134.804375 -1.1328125 135.625 C-1.81601563 136.181875 -2.49921875 136.73875 -3.203125 137.3125 C-6.87840597 139.98543162 -9.99298747 140.14537316 -14.46484375 140.09375 C-18.21292495 139.40285946 -19.66039825 137.72033231 -21.828125 134.6953125 C-25.94447981 127.47124612 -27.13598044 120.34423261 -27.1484375 112.09375 C-27.16675548 110.62889058 -27.18632485 109.16404636 -27.20703125 107.69921875 C-27.23603274 105.40810117 -27.25781399 103.11797356 -27.25830078 100.82666016 C-27.26164136 98.60231362 -27.29619933 96.38020618 -27.3359375 94.15625 C-27.3288678 93.47590698 -27.3217981 92.79556396 -27.31451416 92.09460449 C-27.41154636 88.2868944 -27.93013871 86.71982422 -30.37402344 83.73632812 C-32.89344078 81.71668397 -34.94468347 80.5876977 -38.0078125 79.625 C-37.57223334 78.14526655 -37.13421154 76.66625215 -36.6953125 75.1875 C-36.32986328 73.95193359 -36.32986328 73.95193359 -35.95703125 72.69140625 C-35.4273956 70.98044334 -34.87570077 69.27455982 -34.24389648 67.59863281 C-32.18989654 62.01311946 -31.56175203 57.18129888 -31.6953125 51.25 C-31.71223145 50.00935791 -31.71223145 50.00935791 -31.72949219 48.74365234 C-31.93530732 37.74940282 -31.93530732 37.74940282 -35.7578125 27.625 C-41.34280835 22.66055925 -45.95817087 22.31126501 -53.203125 22.421875 C-55.61338795 22.59643443 -57.69949845 22.94023698 -60.0078125 23.625 C-59.6407919 14.08246442 -55.13547571 5.05781299 -48.64453125 -1.91015625 C-34.17066033 -14.86409801 -14.65185224 -10.03395328 0 0 Z " fill="#0578BD" transform="translate(119.0078125,32.375)"/>
<path d="M0 0 C-1.46580526 3.17833021 -3.28523374 5.82343563 -5.375 8.625 C-14.65703777 21.80510768 -15.35614957 36.01858674 -15.31567383 51.62573242 C-15.31249322 54.19296987 -15.33611971 56.75907438 -15.36132812 59.32617188 C-15.36359992 60.9817694 -15.36430517 62.63736998 -15.36328125 64.29296875 C-15.372491 65.04837448 -15.38170074 65.80378021 -15.39118958 66.58207703 C-15.32844174 73.88238428 -13.44408681 80.07794601 -8.3125 85.5 C-7.68988281 86.1703125 -7.06726562 86.840625 -6.42578125 87.53125 C-5.95527344 88.0159375 -5.48476563 88.500625 -5 89 C-6.73075016 93.23771555 -9.67668794 96.37996436 -12.6875 99.75 C-13.19216797 100.35199219 -13.69683594 100.95398438 -14.21679688 101.57421875 C-17.05965472 104.74413103 -18.33294596 105.89131068 -22.66796875 106.59765625 C-27.33517596 105.76051357 -28.5571109 104.05506399 -31.37890625 100.44140625 C-40.07055992 87.35156639 -43.9168563 70.45915554 -47.23828125 55.28125 C-47.83320013 52.13912229 -47.83320013 52.13912229 -49 50 C-51.84359827 35.30461625 -53.273306 20.04877209 -45.609375 6.55078125 C-35.23376092 -8.22081669 -14.87328138 -8.06805358 0 0 Z " fill="#0578BD" transform="translate(66,24)"/>
<path d="M0 0 C9.77434139 3.63096133 19.14739034 9.46304459 24.21875 18.82421875 C24.7514591 21.80917534 24.98454273 24.05046975 24.90625 27.01171875 C24.89553467 27.78418945 24.88481934 28.55666016 24.8737793 29.35253906 C24.51044509 38.17510687 21.89958977 46.27846312 19.00488281 54.55859375 C18.3063263 56.57182494 17.66095367 58.60333385 17.0234375 60.63671875 C13.95640924 70.07372877 9.27512804 78.34184165 4.21875 86.82421875 C3.55875 86.49421875 2.89875 86.16421875 2.21875 85.82421875 C3.09375 78.07421875 3.09375 78.07421875 4.21875 75.82421875 C4.55489619 69.90950737 4.61845787 63.99406648 4.67871094 58.07080078 C4.70511991 56.09431465 4.74582142 54.11796079 4.80175781 52.14208984 C5.24993871 36.10747333 3.35907807 25.88675521 -7.21875 13.32421875 C-10.56814348 9.83741426 -14.0749988 6.82132606 -18.0546875 4.078125 C-19.81782433 2.79765685 -21.28225868 1.40137833 -22.78125 -0.17578125 C-16.73906199 -3.19687526 -6.45311654 -1.69755491 0 0 Z " fill="#097ABE" transform="translate(136.78125,20.17578125)"/>
<path d="M0 0 C1.42892578 0.02320313 1.42892578 0.02320313 2.88671875 0.046875 C5.3125 0.25 5.3125 0.25 7.3125 1.25 C7.3125 1.91 7.3125 2.57 7.3125 3.25 C5.3325 3.58 3.3525 3.91 1.3125 4.25 C1.88594937 7.11724686 2.1739515 8.1114515 4.3125 10.25 C7.39597826 10.41681109 7.39597826 10.41681109 10.3125 10.25 C12.82541157 23.59726801 11.58897705 33.88055379 6.3125 46.25 C5.9825 47.24 5.6525 48.23 5.3125 49.25 C0.37286644 48.7904992 -2.20929898 47.81515605 -5.6875 44.25 C-11.85458291 36.78034059 -12.50980396 29.79327467 -11.98754883 20.41577148 C-11.87387753 18.29152378 -11.82153258 16.17160214 -11.77539062 14.04492188 C-11.7223317 12.68735528 -11.66581797 11.3299183 -11.60546875 9.97265625 C-11.55156982 8.75328369 -11.4976709 7.53391113 -11.44213867 6.27758789 C-10.6875 3.25 -10.6875 3.25 -8.30664062 1.3503418 C-5.33024396 0.09991117 -3.21642295 -0.08776052 0 0 Z " fill="#0A7BBF" transform="translate(68.6875,61.75)"/>
<path d="M0 0 C0.94786377 0.02094727 1.89572754 0.04189453 2.87231445 0.06347656 C4.41435547 0.0828125 4.41435547 0.0828125 5.98754883 0.10253906 C7.0594043 0.13605469 8.13125977 0.16957031 9.2355957 0.20410156 C10.31905273 0.22214844 11.40250977 0.24019531 12.51879883 0.25878906 C15.19611717 0.30596648 17.8716648 0.37177907 20.5480957 0.45410156 C19.73950195 4.28173828 19.73950195 4.28173828 18.0168457 5.83300781 C9.88309772 10.72293964 3.07401054 12.90771655 -6.4519043 12.45410156 C-5.498931 1.01842195 -5.498931 1.01842195 0 0 Z " fill="#0D7DBF" transform="translate(140.451904296875,114.5458984375)"/>
<path d="M0 0 C0 1.98 0 3.96 0 6 C-4.7028987 8.75486647 -8.1352573 9.38369491 -13.5625 9.3125 C-15.48255859 9.30669922 -15.48255859 9.30669922 -17.44140625 9.30078125 C-20.75006788 9.02112489 -23.03252181 8.42962961 -26 7 C-25.765625 5.1015625 -25.765625 5.1015625 -25 3 C-23.109375 2.0234375 -23.109375 2.0234375 -20.75 1.375 C-18.15678635 0.63291685 -15.91980935 -0.04009532 -13.5 -1.25 C-9.18703274 -2.54389018 -4.04129857 -2.02064928 0 0 Z " fill="#0E7DC0" transform="translate(84,121)"/>
<path d="M0 0 C0.33 0 0.66 0 1 0 C1.33 8.58 1.66 17.16 2 26 C1.34 26 0.68 26 0 26 C-7.85193622 11.40318907 -7.85193622 11.40318907 -8 4 C-6.576875 3.566875 -6.576875 3.566875 -5.125 3.125 C-1.94788422 2.23174891 -1.94788422 2.23174891 0 0 Z " fill="#0F7EC0" transform="translate(132,69)"/>
<path d="M0 0 C0.99 0.33 1.98 0.66 3 1 C2.38125 1.53625 1.7625 2.0725 1.125 2.625 C-1.2782902 5.31103023 -2.06022153 7.55414562 -3 11 C-0.36 11 2.28 11 5 11 C5 11.33 5 11.66 5 12 C2.03 12 -0.94 12 -4 12 C-3.28571429 3.42857143 -3.28571429 3.42857143 0 0 Z " fill="#5AA6D3" transform="translate(138,115)"/>
<path d="M0 0 C0 1.65 0 3.3 0 5 C-2.64 4.34 -5.28 3.68 -8 3 C-8 2.34 -8 1.68 -8 1 C-5.29120665 -0.35439668 -2.99066732 -0.06501451 0 0 Z " fill="#258AC6" transform="translate(134,62)"/>
<path d="M0 0 C0.66 0.33 1.32 0.66 2 1 C-1.3 4.3 -4.6 7.6 -8 11 C-8 6.67750434 -5.85084926 5.11604454 -3 2 C-2.01 1.34 -1.02 0.68 0 0 Z " fill="#2A8CC7" transform="translate(75,27)"/>
<path d="M0 0 C0.66 0.33 1.32 0.66 2 1 C-0.31 3.31 -2.62 5.62 -5 8 C-5.33 7.34 -5.66 6.68 -6 6 C-4 4 -2 2 0 0 Z " fill="#CEE4F1" transform="translate(123,56)"/>
</svg>
