<?xml version="1.0" encoding="UTF-8"?>
<svg version="1.1" xmlns="http://www.w3.org/2000/svg" width="184" height="184">
<path d="M0 0 C3.54138618 -0.11681812 7.0822724 -0.187455 10.625 -0.25 C11.62402344 -0.28351562 12.62304688 -0.31703125 13.65234375 -0.3515625 C19.82559601 -0.43332743 23.27993261 -0.07400341 28 4 C29.0828125 4.86625 29.0828125 4.86625 30.1875 5.75 C38.39512566 15.93877668 37.94078647 32.59216425 37 45 C34.375211 61.7817155 34.375211 61.7817155 27.78369141 66.76977539 C21.22147042 71.10111719 15.117961 70.89565013 7.4609375 70.68359375 C6.08520043 70.67050702 4.7094303 70.66055741 3.33364868 70.65357971 C-0.25434472 70.62709319 -3.84029409 70.55855156 -7.42749023 70.48065186 C-11.10111856 70.40851389 -14.77508343 70.37696162 -18.44921875 70.34179688 C-25.63373555 70.26715056 -32.81657935 70.14798673 -40 70 C-40 72.31 -40 74.62 -40 77 C-28.45 77 -16.9 77 -5 77 C-4.938125 80.67125 -4.87625 84.3425 -4.8125 88.125 C-4.77153198 89.84420654 -4.77153198 89.84420654 -4.72973633 91.59814453 C-4.68482555 97.10623469 -4.6910433 101.34515304 -8 106 C-16.2215959 112.92500013 -26.78085154 112.49314883 -37 112.4375 C-38.30195312 112.45748047 -39.60390625 112.47746094 -40.9453125 112.49804688 C-48.80211957 112.49407879 -54.98547343 111.63208059 -62 108 C-62 107.34 -62 106.68 -62 106 C-62.598125 105.835 -63.19625 105.67 -63.8125 105.5 C-67.16970863 103.19791408 -67.97316745 99.7855445 -69 96 C-69.39941911 92.99287128 -69.44494913 90.03477998 -69.43359375 87.00390625 C-69.4388356 86.17092514 -69.44407745 85.33794403 -69.44947815 84.47972107 C-69.45586191 82.72924914 -69.45460899 80.9787341 -69.44604492 79.22827148 C-69.43753243 76.57261666 -69.46634963 73.9191151 -69.49804688 71.26367188 C-69.585201 53.33039122 -69.585201 53.33039122 -65 48 C-57.33941032 40.57341228 -47.77092675 41.13338388 -37.8125 41.1875 C-35.5263942 41.17322847 -33.24052102 41.15069735 -30.95451355 41.12532043 C-29.54319789 41.11249791 -28.13178025 41.10745859 -26.72041321 41.11186218 C-17.73160475 41.16654655 -17.73160475 41.16654655 -9.875 37.375 C-9.25367188 36.90835938 -8.63234375 36.44171875 -7.9921875 35.9609375 C-1.61770928 29.6864511 -0.42129928 25.70022592 -0.20507812 16.78710938 C-0.19637695 14.94342773 -0.19637695 14.94342773 -0.1875 13.0625 C-0.16236328 11.80630859 -0.13722656 10.55011719 -0.11132812 9.25585938 C-0.0526665 6.1702577 -0.01623074 3.08606812 0 0 Z M-22.875 87.125 C-24.27409643 89.02467776 -24.27409643 89.02467776 -23.6875 91.6875 C-23.460625 92.450625 -23.23375 93.21375 -23 94 C-20.03 94.495 -20.03 94.495 -17 95 C-14.66608797 92.21885944 -14.66608797 92.21885944 -15.375 89.3125 C-15.58125 88.549375 -15.7875 87.78625 -16 87 C-19.54966644 85.86559731 -19.54966644 85.86559731 -22.875 87.125 Z " fill="#FEC810" transform="translate(127,53)"/>
<path d="M0 0 C2.0675765 0.00853162 4.1324004 -0.02036701 6.19970703 -0.05200195 C14.98826164 -0.0979538 21.92546534 0.77867484 28.94580078 6.32104492 C33.49599077 12.27129337 34.02768515 17.2052581 34.00439453 24.44604492 C34.00963638 25.39995117 34.01487823 26.35385742 34.02027893 27.33666992 C34.02668274 29.34707672 34.02538345 31.35752106 34.0168457 33.36791992 C34.00832781 36.43630867 34.03713303 39.50283944 34.06884766 42.57104492 C34.07045971 44.5293777 34.06988206 46.48771376 34.06689453 48.44604492 C34.07812851 49.35870117 34.08936249 50.27135742 34.10093689 51.21166992 C34.03921735 56.87701371 33.36594096 60.14161171 29.57080078 64.44604492 C28.91080078 64.44604492 28.25080078 64.44604492 27.57080078 64.44604492 C27.07580078 65.93104492 27.07580078 65.93104492 26.57080078 67.44604492 C21.57699469 70.12842316 17.67509054 70.83497945 11.94970703 70.92260742 C11.24611557 70.93818695 10.54252411 70.95376648 9.81761169 70.96981812 C7.58951894 71.01691127 5.36172903 71.04492769 3.13330078 71.07104492 C0.90866414 71.10782778 -1.31581224 71.14873354 -3.54029846 71.19369507 C-5.5609928 71.23289035 -7.58189431 71.26094438 -9.6027832 71.28833008 C-17.9311887 71.63160513 -23.26227107 72.57994253 -29.42919922 78.44604492 C-35.12209973 85.4526917 -34.65144761 93.17530734 -34.99169922 101.82104492 C-35.05647461 103.35438477 -35.05647461 103.35438477 -35.12255859 104.91870117 C-35.22807714 107.4276978 -35.33019135 109.93678435 -35.42919922 112.44604492 C-38.78306683 112.56323422 -42.13640071 112.63362076 -45.49169922 112.69604492 C-46.43464844 112.72956055 -47.37759766 112.76307617 -48.34912109 112.79760742 C-54.62895506 112.88513124 -58.34788001 112.22686818 -63.42919922 108.44604492 C-64.91748047 106.66479492 -64.91748047 106.66479492 -65.74169922 104.94604492 C-66.59426462 103.17776113 -67.4513372 101.40771262 -68.43310547 99.70776367 C-73.39572094 88.43970737 -73.06828396 75.60242889 -71.11669922 63.75854492 C-70.9992334 63.0328833 -70.88176758 62.30722168 -70.76074219 61.55957031 C-69.75521088 55.97007475 -68.35549133 51.22026134 -64.05419922 47.25854492 C-63.18794922 46.66041992 -62.32169922 46.06229492 -61.42919922 45.44604492 C-60.67725784 44.92068649 -59.92531647 44.39532806 -59.15058899 43.85404968 C-55.93189967 42.18874987 -53.87138481 42.08304998 -50.26196289 42.10546875 C-48.43063057 42.10580864 -48.43063057 42.10580864 -46.56230164 42.1061554 C-44.59956047 42.12938118 -44.59956047 42.12938118 -42.59716797 42.15307617 C-41.23668385 42.15867608 -39.87619365 42.16294432 -38.51570129 42.16593933 C-34.94649355 42.17735716 -31.37765593 42.20679728 -27.80859375 42.24005127 C-24.16199754 42.27081866 -20.51534113 42.28445886 -16.86865234 42.29956055 C-9.72201717 42.33167044 -2.57563244 42.38282921 4.57080078 42.44604492 C4.57080078 40.13604492 4.57080078 37.82604492 4.57080078 35.44604492 C-6.97919922 35.44604492 -18.52919922 35.44604492 -30.42919922 35.44604492 C-30.49107422 32.31104492 -30.55294922 29.17604492 -30.61669922 25.94604492 C-30.65766724 24.48908203 -30.65766724 24.48908203 -30.69946289 23.00268555 C-30.76332493 16.25116305 -30.06140358 10.31050261 -25.30419922 5.13354492 C-17.21966194 0.38827304 -9.21625057 -0.05794321 0 0 Z M-17.42919922 17.44604492 C-18.91419922 19.92104492 -18.91419922 19.92104492 -20.42919922 22.44604492 C-19.43919922 23.76604492 -18.44919922 25.08604492 -17.42919922 26.44604492 C-13.49844278 25.87151746 -13.49844278 25.87151746 -10.42919922 23.44604492 C-10.74961319 20.84323924 -10.74961319 20.84323924 -11.42919922 18.44604492 C-14.39919922 17.95104492 -14.39919922 17.95104492 -17.42919922 17.44604492 Z " fill="#178ED4" transform="translate(88.42919921875,18.553955078125)"/>
</svg>
