<?xml version="1.0" encoding="UTF-8"?>
<svg version="1.1" xmlns="http://www.w3.org/2000/svg" width="348" height="122">
<path d="M0 0 C114.84 0 229.68 0 348 0 C348 40.26 348 80.52 348 122 C233.16 122 118.32 122 0 122 C0 81.74 0 41.48 0 0 Z " fill="#FAFAFA" transform="translate(0,0)"/>
<path d="M0 0 C3 2.125 3 2.125 5 5 C5.3125 8.25 5.3125 8.25 5 11 C5 11.33 5 11.66 5 12 C5.33 12 5.66 12 6 12 C6 14.64 6 17.28 6 20 C10.95 20 15.9 20 21 20 C21 22.31 21 24.62 21 27 C24.96 27 28.92 27 33 27 C33.33 29.97 33.66 32.94 34 36 C34.70125 35.2575 35.4025 34.515 36.125 33.75 C41.41920023 28.68598239 45.82110344 25.84183251 53.1875 25.9375 C55.5696875 25.9684375 55.5696875 25.9684375 58 26 C58 29.96 58 33.92 58 38 C56.69675781 38.05607422 56.69675781 38.05607422 55.3671875 38.11328125 C46.73779216 38.58388911 46.73779216 38.58388911 39 42 C38.34 42 37.68 42 37 42 C36.690625 42.78375 36.38125 43.5675 36.0625 44.375 C35 47 35 47 34 49 C33.91036153 50.48100811 33.88242075 51.96599424 33.88647461 53.44970703 C33.88655014 54.37051056 33.88662567 55.29131409 33.88670349 56.24002075 C33.89186478 57.23589203 33.89702606 58.23176331 33.90234375 59.2578125 C33.9037587 60.27600067 33.90517365 61.29418884 33.90663147 62.3432312 C33.912241 65.60385035 33.92479512 68.86440151 33.9375 72.125 C33.94251377 74.33203026 33.94707689 76.53906159 33.95117188 78.74609375 C33.96221352 84.16408581 33.97896095 89.58203805 34 95 C34.66 95 35.32 95 36 95 C36 99.95 36 104.9 36 110 C40.95 110 45.9 110 51 110 C51 105.05 51 100.1 51 95 C55.95 95 60.9 95 66 95 C66 99.95 66 104.9 66 110 C70.95 110 75.9 110 81 110 C81 106.04 81 102.08 81 98 C79.35 97.34 77.7 96.68 76 96 C68.62047678 91.08031785 65.39887981 83.74774327 63.39257812 75.24194336 C62.66198366 71.06964923 62.61773657 66.91443585 62.625 62.6875 C62.62588623 61.76122803 62.62677246 60.83495605 62.62768555 59.88061523 C62.74773108 52.94417727 63.78776507 47.21722889 67 41 C67.30808594 40.34515625 67.61617188 39.6903125 67.93359375 39.015625 C68.58430597 37.65815835 69.28417041 36.32428475 70 35 C68.68 35 67.36 35 66 35 C66 30.05 66 25.1 66 20 C70.95 20 75.9 20 81 20 C81 15.05 81 10.1 81 5 C85.95 5 90.9 5 96 5 C96 9.95 96 14.9 96 20 C106.89 20 117.78 20 129 20 C129 50.36 129 80.72 129 112 C14.16 112 -100.68 112 -219 112 C-219 106.39 -219 100.78 -219 95 C-214.05 95 -209.1 95 -204 95 C-204 99.95 -204 104.9 -204 110 C-199.05 110 -194.1 110 -189 110 C-189 105.05 -189 100.1 -189 95 C-185.7 95 -182.4 95 -179 95 C-179.24556641 94.00419922 -179.24556641 94.00419922 -179.49609375 92.98828125 C-180.10603857 89.37116663 -180.10795513 85.84139292 -180.0625 82.1875 C-180.05798828 81.49462891 -180.05347656 80.80175781 -180.04882812 80.08789062 C-180.03713156 78.39188932 -180.01919924 76.69593297 -180 75 C-180.96679688 75.04640625 -181.93359375 75.0928125 -182.9296875 75.140625 C-192.94964032 75.41840587 -201.10228219 74.81141273 -208.875 67.875 C-213.78382929 62.49037401 -216.12086122 56.22014448 -216 49 C-208.48962286 48.93050665 -200.97927904 48.87719222 -193.46865368 48.84456348 C-189.98118424 48.82890365 -186.49393468 48.8076602 -183.0065918 48.77368164 C-178.99786257 48.7348672 -174.98936452 48.7202935 -170.98046875 48.70703125 C-169.72727341 48.69154739 -168.47407806 48.67606354 -167.1829071 48.66011047 C-165.44144157 48.65977058 -165.44144157 48.65977058 -163.66479492 48.65942383 C-162.64109299 48.65276199 -161.61739105 48.64610016 -160.56266785 48.63923645 C-158 49 -158 49 -156.17793274 50.32524109 C-154.32200831 52.96395371 -154.46962848 55.5135048 -154.3125 58.6875 C-154.24675781 59.86699219 -154.18101562 61.04648438 -154.11328125 62.26171875 C-154.05720703 63.61716797 -154.05720703 63.61716797 -154 65 C-153.67 65 -153.34 65 -153 65 C-153 59.06 -153 53.12 -153 47 C-155.10375 47.0825 -157.2075 47.165 -159.375 47.25 C-167.45023684 47.25 -173.15837966 45.50540457 -179.875 41.125 C-184.90317789 36.09682211 -187.92222015 30.50474973 -188.046875 23.28515625 C-188.03140625 22.53105469 -188.0159375 21.77695312 -188 21 C-180.48962286 20.93050665 -172.97927904 20.87719222 -165.46865368 20.84456348 C-161.98118424 20.82890365 -158.49393468 20.8076602 -155.0065918 20.77368164 C-150.99786257 20.7348672 -146.98936452 20.7202935 -142.98046875 20.70703125 C-141.72727341 20.69154739 -140.47407806 20.67606354 -139.1829071 20.66011047 C-137.44144157 20.65977058 -137.44144157 20.65977058 -135.66479492 20.65942383 C-134.64109299 20.65276199 -133.61739105 20.64610016 -132.56266785 20.63923645 C-130 21 -130 21 -128.16723633 22.16723633 C-126.52726585 24.74227468 -126.63962161 26.62185429 -126.65942383 29.66479492 C-126.65965042 30.82577194 -126.65987701 31.98674896 -126.66011047 33.1829071 C-126.67559433 34.43610245 -126.69107819 35.68929779 -126.70703125 36.98046875 C-126.71127609 38.26359451 -126.71552094 39.54672028 -126.71989441 40.86872864 C-126.73133838 44.27686138 -126.76080104 47.6846094 -126.79400635 51.09259033 C-126.82471728 54.57143957 -126.83840189 58.05035109 -126.85351562 61.52929688 C-126.88567165 68.35302243 -126.93686224 75.17649274 -127 82 C-128.44565132 81.85780614 -129.89079089 81.71040279 -131.33569336 81.56079102 C-132.14050644 81.47926285 -132.94531952 81.39773468 -133.77452087 81.31373596 C-137.72243105 80.75718102 -140.56182185 78.93788223 -144 77 C-144 77.99 -144 78.98 -144 80 C-147.3 80 -150.6 80 -154 80 C-154 84.95 -154 89.9 -154 95 C-150.7 95 -147.4 95 -144 95 C-144 99.95 -144 104.9 -144 110 C-139.05 110 -134.1 110 -129 110 C-129 105.05 -129 100.1 -129 95 C-124.05 95 -119.1 95 -114 95 C-114 99.95 -114 104.9 -114 110 C-109.05 110 -104.1 110 -99 110 C-99 105.05 -99 100.1 -99 95 C-94.05 95 -89.1 95 -84 95 C-84 90.05 -84 85.1 -84 80 C-79.05 80 -74.1 80 -69 80 C-69 75.05 -69 70.1 -69 65 C-64.05 65 -59.1 65 -54 65 C-54 69.95 -54 74.9 -54 80 C-50.7 80 -47.4 80 -44 80 C-44.33 80.99 -44.66 81.98 -45 83 C-41.06756002 79.06756002 -40.61462418 75.19008132 -40.56762695 69.82299805 C-40.55233948 68.76851723 -40.55233948 68.76851723 -40.53674316 67.69273376 C-40.50668633 65.38231359 -40.4973588 63.0723085 -40.48828125 60.76171875 C-40.47142907 59.1545932 -40.4532781 57.54748079 -40.43388367 55.94038391 C-40.38643579 51.7203685 -40.35659287 47.50040637 -40.33044434 43.2802124 C-40.30061241 38.96990438 -40.25409114 34.65977982 -40.20898438 30.34960938 C-40.1230106 21.89982983 -40.05563914 13.45003348 -40 5 C-35.71 5 -31.42 5 -27 5 C-26.67 24.8 -26.34 44.6 -26 65 C-25.34 65 -24.68 65 -24 65 C-24 69.95 -24 74.9 -24 80 C-20.04 80 -16.08 80 -12 80 C-12 84.95 -12 89.9 -12 95 C-15.96 95 -19.92 95 -24 95 C-24 99.95 -24 104.9 -24 110 C-19.05 110 -14.1 110 -9 110 C-8.979375 108.370625 -8.95875 106.74125 -8.9375 105.0625 C-8.92009766 103.68771484 -8.92009766 103.68771484 -8.90234375 102.28515625 C-8.74050951 100.03406673 -8.74050951 100.03406673 -10 99 C-10.09963347 96.81377441 -10.12799791 94.6242853 -10.12939453 92.43579102 C-10.13202301 91.40628075 -10.13202301 91.40628075 -10.13470459 90.35597229 C-10.13912808 88.071925 -10.13618051 85.78795442 -10.1328125 83.50390625 C-10.13348609 81.91503383 -10.13445658 80.3261615 -10.13571167 78.73728943 C-10.13718987 75.39556911 -10.13503275 72.05387543 -10.13037109 68.7121582 C-10.12471528 64.45221831 -10.12792544 60.192342 -10.13394356 55.93240452 C-10.13758156 52.64391107 -10.13639508 49.35543232 -10.13381577 46.0669384 C-10.13315325 44.49823944 -10.13395104 42.9295391 -10.13629532 41.36084175 C-10.14582441 33.18040867 -10.01065809 25.13293727 -9 17 C-8.34 17 -7.68 17 -7 17 C-7.825 16.34 -8.65 15.68 -9.5 15 C-12.40894758 11.50926291 -12.40894758 11.50926291 -12.5625 7.9375 C-12 4 -12 4 -10.5 1.5 C-7.01402996 -0.59158203 -3.89784294 -0.8876276 0 0 Z " fill="#F2F2F2" transform="translate(219,10)"/>
<path d="M0 0 C49.5 0 99 0 150 0 C150 4.95 150 9.9 150 15 C145.05 15 140.1 15 135 15 C135 19.95 135 24.9 135 30 C130.05 30 125.1 30 120 30 C120 41.22 120 52.44 120 64 C111.91515759 64 106.70676911 62.64544389 100.875 56.91015625 C93.66264818 48.12010247 93.72502364 40.01433087 94 29 C93.04738281 29.01160156 92.09476562 29.02320312 91.11328125 29.03515625 C89.85902344 29.04417969 88.60476562 29.05320312 87.3125 29.0625 C86.07113281 29.07410156 84.82976562 29.08570312 83.55078125 29.09765625 C80.53764546 29.01478673 77.91724661 28.70839449 75 28 C75 28.66 75 29.32 75 30 C70.05 30 65.1 30 60 30 C60 25.05 60 20.1 60 15 C55.05 15 50.1 15 45 15 C45 19.95 45 24.9 45 30 C40.05 30 35.1 30 30 30 C30.7367934 32.40061784 31.4887368 34.79464052 32.25 37.1875 C32.45496094 37.86103516 32.65992188 38.53457031 32.87109375 39.22851562 C34.87031946 45.43823185 37.5847567 49.63031689 43.5 52.75 C44.2528125 53.15734375 45.005625 53.5646875 45.78125 53.984375 C50.20988692 56.01156796 54.40230999 56.24829787 59.25 56.5625 C60.51328125 56.64628906 61.7765625 56.73007812 63.078125 56.81640625 C64.52445313 56.90728516 64.52445313 56.90728516 66 57 C67.33257403 75.82004556 67.33257403 75.82004556 66 85 C65.67 85 65.34 85 65 85 C64.9498877 84.31373535 64.89977539 83.6274707 64.84814453 82.92041016 C64.61652728 79.8211507 64.37094351 76.72315407 64.125 73.625 C64.04636719 72.54476562 63.96773437 71.46453125 63.88671875 70.3515625 C63.80292969 69.3203125 63.71914063 68.2890625 63.6328125 67.2265625 C63.55949707 66.27346191 63.48618164 65.32036133 63.41064453 64.33837891 C63.19826166 61.81549808 63.19826166 61.81549808 61 60 C58.45240753 59.66814656 58.45240753 59.66814656 55.44873047 59.68115234 C54.28767792 59.66128265 53.12662537 59.64141296 51.9303894 59.62094116 C50.04285446 59.60361435 50.04285446 59.60361435 48.1171875 59.5859375 C46.19037643 59.55688828 46.19037643 59.55688828 44.22463989 59.5272522 C40.80852465 59.47586059 37.39236993 59.43627286 33.97607422 59.39910889 C30.49046001 59.35911302 27.00501097 59.30800062 23.51953125 59.2578125 C16.6798081 59.16097025 9.83997904 59.0765922 3 59 C3.45700755 60.76438431 3.92049969 62.52708983 4.38671875 64.2890625 C4.64412842 65.27084473 4.90153809 66.25262695 5.16674805 67.26416016 C7.05682064 73.46988926 10.79885932 77.29918837 16 81 C23.36847175 84.75122198 30.86247163 84.63671748 39 85 C39.33 91.6 39.66 98.2 40 105 C36.7 105 33.4 105 30 105 C30 109.95 30 114.9 30 120 C25.05 120 20.1 120 15 120 C15 115.05 15 110.1 15 105 C10.05 105 5.1 105 0 105 C0 70.35 0 35.7 0 0 Z " fill="#F5F5F5" transform="translate(0,0)"/>
<path d="M0 0 C3.40574272 2.24469406 5.98906421 5.11878444 8.71875 8.1328125 C9.04875 5.1628125 9.37875 2.1928125 9.71875 -0.8671875 C13.67875 -0.8671875 17.63875 -0.8671875 21.71875 -0.8671875 C21.71875 22.8928125 21.71875 46.6528125 21.71875 71.1328125 C17.75875 71.1328125 13.79875 71.1328125 9.71875 71.1328125 C9.38875 67.8328125 9.05875 64.5328125 8.71875 61.1328125 C8.05875 62.0403125 7.39875 62.9478125 6.71875 63.8828125 C2.88649727 68.50116836 -2.43708795 70.99854815 -8.28125 72.1328125 C-17.39128724 72.80955812 -24.58718242 72.16192914 -31.96875 66.5703125 C-39.22735467 59.89173332 -42.18507267 49.75197594 -42.6171875 40.14453125 C-42.64689794 38.3699926 -42.65946025 36.59509694 -42.65625 34.8203125 C-42.65463867 33.89404053 -42.65302734 32.96776855 -42.65136719 32.01342773 C-42.52741551 25.09704579 -41.60880223 19.29109492 -38.28125 13.1328125 C-37.70375 12.0603125 -37.12625 10.9878125 -36.53125 9.8828125 C-27.44442347 -1.22330882 -13.85162922 -6.25753425 0 0 Z " fill="#233657" transform="translate(324.28125,37.8671875)"/>
<path d="M0 0 C3 2.125 3 2.125 5 5 C5.3125 8.25 5.3125 8.25 5 11 C5 11.33 5 11.66 5 12 C5.33 12 5.66 12 6 12 C6 14.64 6 17.28 6 20 C10.95 20 15.9 20 21 20 C21 22.31 21 24.62 21 27 C24.96 27 28.92 27 33 27 C33.495 31.455 33.495 31.455 34 36 C35.051875 34.88625 35.051875 34.88625 36.125 33.75 C41.41920023 28.68598239 45.82110344 25.84183251 53.1875 25.9375 C55.5696875 25.9684375 55.5696875 25.9684375 58 26 C58 29.96 58 33.92 58 38 C56.69675781 38.05607422 56.69675781 38.05607422 55.3671875 38.11328125 C46.73779216 38.58388911 46.73779216 38.58388911 39 42 C38.34 42 37.68 42 37 42 C36.690625 42.78375 36.38125 43.5675 36.0625 44.375 C35 47 35 47 34 49 C33.88143364 50.6027098 33.82293876 52.21005353 33.79467773 53.81689453 C33.77473251 54.81778107 33.75478729 55.8186676 33.73423767 56.84988403 C33.70916893 58.47493362 33.70916893 58.47493362 33.68359375 60.1328125 C33.66281265 61.23978485 33.64203156 62.3467572 33.62062073 63.48727417 C33.55509009 67.03311799 33.49622386 70.57903754 33.4375 74.125 C33.39431813 76.5247475 33.35070395 78.92448727 33.30664062 81.32421875 C33.19940508 87.21606767 33.09814752 93.10799297 33 99 C28.71 99 24.42 99 20 99 C19.505 67.32 19.505 67.32 19 35 C14.71 35 10.42 35 6 35 C6 39.95 6 44.9 6 50 C10.29 50 14.58 50 19 50 C19 54.95 19 59.9 19 65 C14.71 65 10.42 65 6 65 C6 69.95 6 74.9 6 80 C10.29 80 14.58 80 19 80 C19 84.95 19 89.9 19 95 C14.05 95 9.1 95 4 95 C3.67 95.99 3.34 96.98 3 98 C2 99 2 99 -0.72265625 99.09765625 C-1.82480469 99.08605469 -2.92695313 99.07445313 -4.0625 99.0625 C-5.16722656 99.05347656 -6.27195313 99.04445313 -7.41015625 99.03515625 C-8.26480469 99.02355469 -9.11945313 99.01195313 -10 99 C-10.02325802 89.78507723 -10.04098332 80.5701647 -10.05181217 71.35521889 C-10.0570117 67.07550641 -10.06405563 62.79581414 -10.07543945 58.51611328 C-10.08637309 54.37936583 -10.09229886 50.24263772 -10.09487724 46.10587692 C-10.09671273 44.53438386 -10.10029664 42.96289175 -10.10573006 41.39140701 C-10.132907 33.19893231 -10.01726019 25.14512138 -9 17 C-8.34 17 -7.68 17 -7 17 C-7.825 16.34 -8.65 15.68 -9.5 15 C-12.40894758 11.50926291 -12.40894758 11.50926291 -12.5625 7.9375 C-12 4 -12 4 -10.5 1.5 C-7.01402996 -0.59158203 -3.89784294 -0.8876276 0 0 Z " fill="#FAFAFA" transform="translate(219,10)"/>
<path d="M0 0 C7.51032142 -0.09265712 15.02058364 -0.16374292 22.53134632 -0.20724869 C26.01890556 -0.228129 29.50607394 -0.25645318 32.9934082 -0.30175781 C37.00215417 -0.35351062 41.01048922 -0.37294136 45.01953125 -0.390625 C46.89932426 -0.42159271 46.89932426 -0.42159271 48.8170929 -0.45318604 C49.97806992 -0.45348816 51.13904694 -0.45379028 52.33520508 -0.45410156 C53.87075798 -0.46742523 53.87075798 -0.46742523 55.43733215 -0.48101807 C58 -0 58 -0 59.83276367 1.67297363 C61.26924528 4.53677293 61.36181994 6.4857957 61.34057617 9.68652344 C61.34023628 11.39784454 61.34023628 11.39784454 61.33988953 13.14373779 C61.32440567 14.36989807 61.30892181 15.59605835 61.29296875 16.859375 C61.28872391 18.11888977 61.28447906 19.37840454 61.28010559 20.67608643 C61.26616121 24.01688538 61.23922925 27.35706584 61.20599365 30.69769287 C61.17524839 34.10960558 61.16159079 37.5215823 61.14648438 40.93359375 C61.11339814 47.62256649 61.06318524 54.31124754 61 61 C54.01915127 61.10166781 49.76018654 59.97859038 44 56 C38.1801079 50.27639288 35.13988002 44.70411326 34.89453125 36.453125 C34.87702314 32.96550984 34.9129606 29.48641148 35 26 C33.64068359 26.05220703 33.64068359 26.05220703 32.25390625 26.10546875 C21.40161026 26.34663088 13.79315922 25.61348561 5.73046875 17.953125 C0.55833222 12.11549912 -0.07280813 7.5677348 0 0 Z " fill="#2885FE" transform="translate(59,3)"/>
<path d="M0 0 C7.51037714 -0.06949335 15.02072096 -0.12280778 22.53134632 -0.15543652 C26.01881576 -0.17109635 29.50606532 -0.1923398 32.9934082 -0.22631836 C37.00213743 -0.2651328 41.01063548 -0.2797065 45.01953125 -0.29296875 C46.27272659 -0.30845261 47.52592194 -0.32393646 48.8170929 -0.33988953 C50.55855843 -0.34022942 50.55855843 -0.34022942 52.33520508 -0.34057617 C53.35890701 -0.34723801 54.38260895 -0.35389984 55.43733215 -0.36076355 C58 0 58 0 59.83276367 1.16723633 C61.47273415 3.74227468 61.36037839 5.62185429 61.34057617 8.66479492 C61.34023628 10.40626045 61.34023628 10.40626045 61.33988953 12.1829071 C61.32440567 13.43610245 61.30892181 14.68929779 61.29296875 15.98046875 C61.28872391 17.26359451 61.28447906 18.54672028 61.28010559 19.86872864 C61.26866162 23.27686138 61.23919896 26.6846094 61.20599365 30.09259033 C61.17528272 33.57143957 61.16159811 37.05035109 61.14648438 40.52929688 C61.11432835 47.35302243 61.06313776 54.17649274 61 61 C59.57485051 60.87320667 58.15050962 60.73730656 56.7265625 60.59765625 C55.53667725 60.48562866 55.53667725 60.48562866 54.32275391 60.37133789 C47.87970401 59.34128966 43.50639956 55.12324396 39.51171875 50.2578125 C34.54034317 42.83286396 34.59860766 34.65223485 35 26 C34.10539062 26.04640625 33.21078125 26.0928125 32.2890625 26.140625 C22.81641267 26.42339067 16.08118275 25.31381483 8.125 20.125 C3.09682211 15.09682211 0.07777985 9.50474973 -0.046875 2.28515625 C-0.03140625 1.53105469 -0.0159375 0.77695312 0 0 Z " fill="#2683FD" transform="translate(31,31)"/>
<path d="M0 0 C7.51037714 -0.06949335 15.02072096 -0.12280778 22.53134632 -0.15543652 C26.01881576 -0.17109635 29.50606532 -0.1923398 32.9934082 -0.22631836 C37.00213743 -0.2651328 41.01063548 -0.2797065 45.01953125 -0.29296875 C46.27272659 -0.30845261 47.52592194 -0.32393646 48.8170929 -0.33988953 C50.55855843 -0.34022942 50.55855843 -0.34022942 52.33520508 -0.34057617 C53.35890701 -0.34723801 54.38260895 -0.35389984 55.43733215 -0.36076355 C58 0 58 0 59.83276367 1.16723633 C61.47273415 3.74227468 61.36037839 5.62185429 61.34057617 8.66479492 C61.34023628 10.40626045 61.34023628 10.40626045 61.33988953 12.1829071 C61.32440567 13.43610245 61.30892181 14.68929779 61.29296875 15.98046875 C61.28872391 17.26359451 61.28447906 18.54672028 61.28010559 19.86872864 C61.26866162 23.27686138 61.23919896 26.6846094 61.20599365 30.09259033 C61.17528272 33.57143957 61.16159811 37.05035109 61.14648438 40.52929688 C61.11432835 47.35302243 61.06313776 54.17649274 61 61 C59.55067291 60.85812402 58.10187343 60.71085094 56.65332031 60.5612793 C55.8464679 60.47984177 55.03961548 60.39840424 54.20831299 60.3144989 C48.76087222 59.53869667 44.95756234 55.95756234 41.1875 52.1875 C35.36448749 43.70253892 35.65261695 35.88111787 36 26 C34.54980469 26.06960937 34.54980469 26.06960937 33.0703125 26.140625 C23.05035968 26.41840587 14.89771781 25.81141273 7.125 18.875 C2.21617071 13.49037401 -0.12086122 7.22014448 0 0 Z " fill="#2582FD" transform="translate(3,59)"/>
<path d="M0 0 C4.86498319 4.09900711 7.58700439 8.80986321 8.21948242 15.22680664 C8.34067747 17.77952506 8.37120283 20.31950545 8.375 22.875 C8.39949219 23.73480469 8.42398438 24.59460938 8.44921875 25.48046875 C8.48113425 32.49124077 6.84241727 37.63841976 2.2890625 43.0234375 C-3.49539497 47.72161187 -8.39598009 49.65551896 -16 49 C-20.99754491 47.86506137 -24.8741987 46.12885755 -27.96875 41.83203125 C-33.01009673 32.87600241 -33.50238693 21.326858 -31.4609375 11.37109375 C-29.32097286 5.17460274 -25.83493116 0.91746558 -20 -2 C-13.40627729 -4.41769833 -6.10804567 -3.15397267 0 0 Z " fill="#F1F1F1" transform="translate(326,50)"/>
<path d="M0 0 C4.29 0 8.58 0 13 0 C13.0930829 9.32797263 13.16395774 18.65578296 13.20724869 27.98412037 C13.22803651 32.3166487 13.25619092 36.64885698 13.30175781 40.98120117 C13.34553275 45.16985361 13.36920315 49.35820011 13.37950897 53.54706383 C13.38684404 55.13731381 13.40116625 56.72754891 13.42292023 58.31766701 C13.55986082 68.75168925 13.12864821 78.61829381 6.8125 87.4375 C-0.38994192 93.99972486 -7.71161711 94.54723233 -17.1328125 94.3359375 C-21.07956444 93.99308834 -24.25259314 93.21669054 -28 92 C-28 88.04 -28 84.08 -28 80 C-26.865625 80.165 -25.73125 80.33 -24.5625 80.5 C-17.53976854 81.35612804 -10.63871617 81.84516407 -4 79 C-2.53335352 76.58500543 -2.53335352 76.58500543 -2 74 C-1.67 73.34 -1.34 72.68 -1 72 C-0.87887902 69.72338355 -0.82247855 67.44324083 -0.79467773 65.16357422 C-0.78477814 64.46102509 -0.77487854 63.75847595 -0.76467896 63.03463745 C-0.7330432 60.70802197 -0.70829841 58.38138606 -0.68359375 56.0546875 C-0.66302601 54.44328271 -0.64202958 52.83188334 -0.62062073 51.2204895 C-0.56538146 46.97577294 -0.51598039 42.73100753 -0.46777344 38.48620605 C-0.41757194 34.15612432 -0.36187883 29.82611365 -0.30664062 25.49609375 C-0.19903637 16.99745589 -0.09759646 8.49875865 0 0 Z " fill="#243757" transform="translate(179,15)"/>
<path d="M0 0 C4.95 0 9.9 0 15 0 C15 4.95 15 9.9 15 15 C14.34 15 13.68 15 13 15 C13 19.95 13 24.9 13 30 C13.66 30 14.32 30 15 30 C15 34.95 15 39.9 15 45 C18.96 45 22.92 45 27 45 C27 42.36 27 39.72 27 37 C27.33 37 27.66 37 28 37 C28 60.76 28 84.52 28 109 C32.62 109 37.24 109 42 109 C42 109.33 42 109.66 42 110 C38.04 110 34.08 110 30 110 C30 113.3 30 116.6 30 120 C25.05 120 20.1 120 15 120 C15 115.05 15 110.1 15 105 C18.96 105 22.92 105 27 105 C27 100.05 27 95.1 27 90 C23.04 90 19.08 90 15 90 C15 85.05 15 80.1 15 75 C14.34 75 13.68 75 13 75 C13 79.29 13 83.58 13 88 C12.67 88 12.34 88 12 88 C12 63.58 12 39.16 12 14 C7.71 14 3.42 14 -1 14 C-0.67 9.38 -0.34 4.76 0 0 Z " fill="#FEFEFE" transform="translate(180,0)"/>
<path d="M0 0 C2.3821875 0.0309375 2.3821875 0.0309375 4.8125 0.0625 C4.8125 4.0225 4.8125 7.9825 4.8125 12.0625 C3.50925781 12.11857422 3.50925781 12.11857422 2.1796875 12.17578125 C-6.44970784 12.64638911 -6.44970784 12.64638911 -14.1875 16.0625 C-14.8475 16.0625 -15.5075 16.0625 -16.1875 16.0625 C-16.496875 16.84625 -16.80625 17.63 -17.125 18.4375 C-18.1875 21.0625 -18.1875 21.0625 -19.1875 23.0625 C-19.30606636 24.6652098 -19.36456124 26.27255353 -19.39282227 27.87939453 C-19.41276749 28.88028107 -19.43271271 29.8811676 -19.45326233 30.91238403 C-19.47833107 32.53743362 -19.47833107 32.53743362 -19.50390625 34.1953125 C-19.52468735 35.30228485 -19.54546844 36.4092572 -19.56687927 37.54977417 C-19.63240991 41.09561799 -19.69127614 44.64153754 -19.75 48.1875 C-19.79318187 50.5872475 -19.83679605 52.98698727 -19.88085938 55.38671875 C-19.98809492 61.27856767 -20.08935248 67.17049297 -20.1875 73.0625 C-24.1475 72.7325 -28.1075 72.4025 -32.1875 72.0625 C-32.1875 48.6325 -32.1875 25.2025 -32.1875 1.0625 C-28.2275 1.0625 -24.2675 1.0625 -20.1875 1.0625 C-19.8575 4.0325 -19.5275 7.0025 -19.1875 10.0625 C-18.135625 8.94875 -18.135625 8.94875 -17.0625 7.8125 C-11.76829977 2.74848239 -7.36639656 -0.09566749 0 0 Z " fill="#263959" transform="translate(272.1875,35.9375)"/>
<path d="M0 0 C1.35686721 -0.01187203 2.71369894 -0.02895386 4.07043457 -0.05126953 C5.99659039 -0.08118628 7.92305072 -0.08898476 9.84942627 -0.09594727 C11.52971924 -0.10996582 11.52971924 -0.10996582 13.24395752 -0.12426758 C16.03692627 0.23217773 16.03692627 0.23217773 17.69020081 1.45204163 C19.45668194 3.7870215 19.39995096 5.15997558 19.37750244 8.07080078 C19.37716255 9.54198616 19.37716255 9.54198616 19.3768158 11.04289246 C19.36133194 12.09922379 19.34584808 13.15555511 19.32989502 14.24389648 C19.32565018 15.32725784 19.32140533 16.4106192 19.31703186 17.52680969 C19.30022196 20.99135051 19.26256475 24.45531235 19.22442627 27.91967773 C19.20938246 30.26667455 19.19569353 32.61368047 19.18341064 34.96069336 C19.15031088 40.71805279 19.10008832 46.4750739 19.03692627 52.23217773 C18.04699271 50.26458252 17.0685739 48.30225462 16.16192627 46.29467773 C13.59188859 41.58294199 10.18644085 38.53050984 6.03692627 35.23217773 C5.01663761 33.91430489 4.01721243 32.58007121 3.03692627 31.23217773 C0.55785658 28.50261924 0.55785658 28.50261924 -1.96307373 26.23217773 C-2.62307373 26.23217773 -3.28307373 26.23217773 -3.96307373 26.23217773 C-4.29307373 24.91217773 -4.62307373 23.59217773 -4.96307373 22.23217773 C-5.95307373 22.23217773 -6.94307373 22.23217773 -7.96307373 22.23217773 C-7.96307373 21.57217773 -7.96307373 20.91217773 -7.96307373 20.23217773 C-8.62307373 19.90217773 -9.28307373 19.57217773 -9.96307373 19.23217773 C-9.30307373 18.57217773 -8.64307373 17.91217773 -7.96307373 17.23217773 C-8.53541748 16.97307617 -9.10776123 16.71397461 -9.69744873 16.44702148 C-12.15923176 15.12699645 -14.09780809 13.61615648 -16.21307373 11.79467773 C-16.91947998 11.1978418 -17.62588623 10.60100586 -18.35369873 9.98608398 C-19.96307373 8.23217773 -19.96307373 8.23217773 -19.96307373 5.23217773 C-20.74682373 5.08780273 -21.53057373 4.94342773 -22.33807373 4.79467773 C-24.96307373 4.23217773 -24.96307373 4.23217773 -26.96307373 3.23217773 C-28.95859155 2.87298453 -30.95856252 2.53721205 -32.96307373 2.23217773 C-32.96307373 1.90217773 -32.96307373 1.57217773 -32.96307373 1.23217773 C-21.98462147 0.45787883 -11.00463895 0.08282319 0 0 Z " fill="#1571EF" transform="translate(44.96307373046875,58.767822265625)"/>
<path d="M0 0 C0.78673096 -0.02126953 1.57346191 -0.04253906 2.3840332 -0.06445312 C7.65712717 -0.09725255 7.65712717 -0.09725255 9.89233398 1.36621094 C11.8059281 4.14948938 11.54236846 6.36751731 11.515625 9.71875 C11.51046875 11.01296875 11.5053125 12.3071875 11.5 13.640625 C11.4896875 14.31673828 11.479375 14.99285156 11.46875 15.68945312 C11.43803026 17.71503625 11.42781574 19.73983355 11.421875 21.765625 C11.36224507 29.3088112 11.0331547 36.75317277 10.1875 44.25 C9.65125 43.569375 9.115 42.88875 8.5625 42.1875 C4.23246542 36.83193092 -0.21486119 31.77772424 -5.140625 26.9609375 C-6.74943059 25.314543 -8.18990233 23.61059296 -9.625 21.8125 C-10.346875 20.966875 -11.06875 20.12125 -11.8125 19.25 C-12.4725 19.25 -13.1325 19.25 -13.8125 19.25 C-15.8125 17.25 -15.8125 17.25 -16.6875 15.25 C-18.08312362 12.76889134 -19.27467667 12.4442698 -21.8125 11.25 C-23.16750919 9.93870078 -24.49921343 8.60308313 -25.8125 7.25 C-28.70575387 4.79073421 -31.39849137 2.88467362 -34.8125 1.25 C-23.21510843 0.69015673 -11.61087515 0.15571236 0 0 Z " fill="#1471EF" transform="translate(80.8125,30.75)"/>
<path d="M0 0 C3.96 0 7.92 0 12 0 C12 23.76 12 47.52 12 72 C8.04 72 4.08 72 0 72 C0 48.24 0 24.48 0 0 Z " fill="#203355" transform="translate(209,37)"/>
<path d="M0 0 C4.95 0 9.9 0 15 0 C15 4.95 15 9.9 15 15 C25.89 15 36.78 15 48 15 C47.67 41.07 47.34 67.14 47 94 C46.67 94 46.34 94 46 94 C46 70.24 46 46.48 46 22 C42.04 22 38.08 22 34 22 C34 25.63 34 29.26 34 33 C33.278125 32.2575 32.55625 31.515 31.8125 30.75 C25.13846025 24.22427225 20.08653286 21.72254158 10.625 21.625 C2.72870536 21.73338051 -1.72601396 23.25898843 -7.6875 28.25 C-10 30 -10 30 -15 30 C-15 25.05 -15 20.1 -15 15 C-10.05 15 -5.1 15 0 15 C0 10.05 0 5.1 0 0 Z " fill="#EEEEEE" transform="translate(300,15)"/>
<path d="M0 0 C0 4.29 0 8.58 0 13 C-4.95 13 -9.9 13 -15 13 C-15 17.95 -15 22.9 -15 28 C-10.05 28 -5.1 28 0 28 C0 32.95 0 37.9 0 43 C4.29 43 8.58 43 13 43 C11 48 11 48 9.08203125 49.36328125 C2.66448906 52.04738237 -2.3385469 52.99338817 -9.125 50.875 C-14.07091467 48.79905516 -16.72361579 45.70202302 -18.96875 40.94921875 C-22.0444571 32.47678484 -22.7288657 20.93811663 -19.75 12.3125 C-16.6397912 6.42531905 -13.43054088 2.52299843 -7 0.3125 C-5 0 -5 0 0 0 Z " fill="#EFEFF0" transform="translate(315,47)"/>
<path d="M0 0 C4.95 0 9.9 0 15 0 C16.07421875 8.30078125 16.07421875 8.30078125 16 11 C14.546875 12.609375 14.546875 12.609375 13 14 C12.35424406 19.54837776 12.35424406 19.54837776 14.5625 24.4375 C17.68103694 26.43656214 20.34186183 26.71860476 24 27 C24 27.33 24 27.66 24 28 C21.36 28 18.72 28 16 28 C14.81660922 36.52799402 14.77702083 45.03711882 14.68359375 53.62890625 C14.66298679 55.23030589 14.64198944 56.83170055 14.62062073 58.43309021 C14.56578601 62.62016735 14.51620878 66.80729039 14.46777344 70.9944458 C14.41727406 75.27823912 14.36173739 79.56196691 14.30664062 83.84570312 C14.1995322 92.23041313 14.09798495 100.61517844 14 109 C13.67 109 13.34 109 13 109 C12.67 87.88 12.34 66.76 12 45 C8.04 45 4.08 45 0 45 C0 40.05 0 35.1 0 30 C-0.66 30 -1.32 30 -2 30 C-2 25.05 -2 20.1 -2 15 C-1.34 15 -0.68 15 0 15 C0 10.05 0 5.1 0 0 Z " fill="#FCFCFC" transform="translate(195,0)"/>
<path d="M0 0 C0.33 0 0.66 0 1 0 C1 23.76 1 47.52 1 72 C5.29 72 9.58 72 14 72 C14 72.33 14 72.66 14 73 C10.04 73 6.08 73 2 73 C2 76.3 2 79.6 2 83 C-2.95 83 -7.9 83 -13 83 C-13 78.05 -13 73.1 -13 68 C-8.71 68 -4.42 68 0 68 C0 63.05 0 58.1 0 53 C-4.29 53 -8.58 53 -13 53 C-13 48.05 -13 43.1 -13 38 C-8.71 38 -4.42 38 0 38 C0 33.05 0 28.1 0 23 C-4.29 23 -8.58 23 -13 23 C-13 18.05 -13 13.1 -13 8 C-8.71 8 -4.42 8 0 8 C0 5.36 0 2.72 0 0 Z " fill="#FFFFFF" transform="translate(238,37)"/>
<path d="M0 0 C1.20140625 -0.020625 2.4028125 -0.04125 3.640625 -0.0625 C5.36539063 -0.07023437 5.36539063 -0.07023437 7.125 -0.078125 C8.70667969 -0.09214355 8.70667969 -0.09214355 10.3203125 -0.10644531 C13 0.25 13 0.25 14.84887695 1.27368164 C16.6798883 4.41727376 16.36588245 7.66699438 16.29296875 11.19921875 C16.28872391 11.97183548 16.28447906 12.74445221 16.28010559 13.54048157 C16.26332183 16.00650992 16.22567147 18.47171896 16.1875 20.9375 C16.17245271 22.61001423 16.15876438 24.28254128 16.14648438 25.95507812 C16.11341946 30.05370078 16.06164028 34.15171151 16 38.25 C14 35.25 14 35.25 13.6875 33.0625 C12.70286005 29.03442748 10.82308701 25.31658777 8 22.25 C6.68 22.25 5.36 22.25 4 22.25 C4 20.93 4 19.61 4 18.25 C2.68 18.25 1.36 18.25 0 18.25 C0 16.93 0 15.61 0 14.25 C-0.99 13.92 -1.98 13.59 -3 13.25 C-4.01187895 11.59051852 -5.0126546 9.92419438 -6 8.25 C-6.66 8.25 -7.32 8.25 -8 8.25 C-10.08937386 6.35056922 -11.73220443 4.78559113 -13 2.25 C-13.99 1.92 -14.98 1.59 -16 1.25 C-10.84099981 -0.46966673 -5.40033356 0.0231774 0 0 Z " fill="#0A5FDC" transform="translate(48,58.75)"/>
<path d="M0 0 C4.95 0 9.9 0 15 0 C15 4.29 15 8.58 15 13 C18.96 13.33 22.92 13.66 27 14 C27 14.33 27 14.66 27 15 C22.71 15 18.42 15 14 15 C14 24.9 14 34.8 14 45 C9.38 45 4.76 45 0 45 C0 40.05 0 35.1 0 30 C3.96 30 7.92 30 12 30 C12.33 25.05 12.66 20.1 13 15 C8.71 15 4.42 15 0 15 C0 10.05 0 5.1 0 0 Z " fill="#ECECED" transform="translate(165,0)"/>
<path d="M0 0 C0.81766846 -0.02126953 1.63533691 -0.04253906 2.4777832 -0.06445312 C8.20465025 -0.09815828 8.20465025 -0.09815828 10.40991211 1.49194336 C12.02901726 3.71995333 12.04824508 4.97060021 12.015625 7.70703125 C12.01046875 8.57263672 12.0053125 9.43824219 12 10.33007812 C11.979375 11.23177734 11.95875 12.13347656 11.9375 13.0625 C11.93234375 13.95259766 11.9271875 14.84269531 11.921875 15.75976562 C11.86735874 20.35616794 11.61390827 24.73002417 10.6875 29.25 C10.0275 28.92 9.3675 28.59 8.6875 28.25 C8.543125 27.59 8.39875 26.93 8.25 26.25 C8.064375 25.59 7.87875 24.93 7.6875 24.25 C6.6975 23.92 5.7075 23.59 4.6875 23.25 C4.35416667 21.91666667 4.02083333 20.58333333 3.6875 19.25 C2.6975 18.92 1.7075 18.59 0.6875 18.25 C-0.67077971 16.60360035 -2.00504251 14.93704193 -3.3125 13.25 C-3.9725 12.92 -4.6325 12.59 -5.3125 12.25 C-5.6425 12.91 -5.9725 13.57 -6.3125 14.25 C-10.3125 8.5 -10.3125 8.5 -10.3125 6.25 C-11.6325 6.25 -12.9525 6.25 -14.3125 6.25 C-15.3125 5.25 -16.3125 4.25 -17.3125 3.25 C-19.58411255 2.67676193 -19.58411255 2.67676193 -22 2.5625 C-23.21236328 2.46388672 -23.21236328 2.46388672 -24.44921875 2.36328125 C-25.06410156 2.32589844 -25.67898437 2.28851563 -26.3125 2.25 C-26.3125 1.92 -26.3125 1.59 -26.3125 1.25 C-17.54655386 0.57290623 -8.79187843 0.11500389 0 0 Z " fill="#0A5FDC" transform="translate(80.3125,30.75)"/>
<path d="M0 0 C4.95 0 9.9 0 15 0 C15.31453125 1.02480469 15.6290625 2.04960938 15.953125 3.10546875 C16.38484559 4.46632713 16.81716934 5.82699427 17.25 7.1875 C17.45496094 7.86103516 17.65992187 8.53457031 17.87109375 9.22851562 C19.72457348 14.98553599 22.1929151 19.42709053 27.75 22.3125 C28.8225 22.869375 29.895 23.42625 31 24 C30.67 25.32 30.34 26.64 30 28 C25.05 28 20.1 28 15 28 C15 23.71 15 19.42 15 15 C10.05 15 5.1 15 0 15 C0 10.05 0 5.1 0 0 Z " fill="#EEEEEF" transform="translate(15,30)"/>
<path d="M0 0 C4.95 0 9.9 0 15 0 C15 4.95 15 9.9 15 15 C14.34 15 13.68 15 13 15 C13 19.95 13 24.9 13 30 C13.66 30 14.32 30 15 30 C15 34.95 15 39.9 15 45 C14.34 45 13.68 45 13 45 C13 49.95 13 54.9 13 60 C13.66 60 14.32 60 15 60 C15 64.95 15 69.9 15 75 C14.34 75 13.68 75 13 75 C13 79.29 13 83.58 13 88 C12.67 88 12.34 88 12 88 C12 63.58 12 39.16 12 14 C7.71 14 3.42 14 -1 14 C-0.67 9.38 -0.34 4.76 0 0 Z " fill="#FFFFFF" transform="translate(180,0)"/>
<path d="M0 0 C4.95 0 9.9 0 15 0 C14.8453125 2.4440625 14.8453125 2.4440625 14.6875 4.9375 C14.7111517 11.07117311 16.1259984 15.23627555 20 20 C22.51216053 22.27756188 25.14503331 24.17831624 28 26 C28.99 26.66 29.98 27.32 31 28 C30.67 28.66 30.34 29.32 30 30 C25.05 30 20.1 30 15 30 C15 25.05 15 20.1 15 15 C10.05 15 5.1 15 0 15 C0 10.05 0 5.1 0 0 Z " fill="#EEEEEF" transform="translate(45,0)"/>
<path d="M0 0 C4.95 0 9.9 0 15 0 C15 4.29 15 8.58 15 13 C19.95 13 24.9 13 30 13 C30 12.01 30 11.02 30 10 C40.395 10.99 40.395 10.99 51 12 C52.28571429 31.14285714 52.28571429 31.14285714 51 40 C50.67 40 50.34 40 50 40 C49.9498877 39.31373535 49.89977539 38.6274707 49.84814453 37.92041016 C49.61652728 34.8211507 49.37094351 31.72315407 49.125 28.625 C49.04636719 27.54476562 48.96773437 26.46453125 48.88671875 25.3515625 C48.80292969 24.3203125 48.71914063 23.2890625 48.6328125 22.2265625 C48.55949707 21.27346191 48.48618164 20.32036133 48.41064453 19.33837891 C48.19826166 16.81549808 48.19826166 16.81549808 46 15 C43.90019956 14.66983494 43.90019956 14.66983494 41.45849609 14.68115234 C40.51767181 14.66128265 39.57684753 14.64141296 38.60751343 14.62094116 C37.58976837 14.60938995 36.57202332 14.59783875 35.5234375 14.5859375 C34.48305328 14.56657135 33.44266907 14.5472052 32.37075806 14.5272522 C29.0389228 14.46734273 25.70705321 14.42102548 22.375 14.375 C20.11977637 14.3368307 17.86456748 14.2977796 15.609375 14.2578125 C10.073036 14.16163181 4.53662876 14.07764284 -1 14 C-0.67 9.38 -0.34 4.76 0 0 Z " fill="#FEFEFE" transform="translate(15,45)"/>
<path d="M0 0 C5.94 0 11.88 0 18 0 C18 9.9 18 19.8 18 30 C17.01 30 16.02 30 15 30 C15 25.05 15 20.1 15 15 C10.05 15 5.1 15 0 15 C0 10.05 0 5.1 0 0 Z " fill="#FFFFFF" transform="translate(330,0)"/>
<path d="M0 0 C2 3 2 3 3.4375 5.9375 C4.84919146 8.95412109 4.84919146 8.95412109 6.6875 11.125 C8 13 8 13 8 17 C4.7 17 1.4 17 -2 17 C-2 21.95 -2 26.9 -2 32 C1.3 32 4.6 32 8 32 C8 36.95 8 41.9 8 47 C4.37 47 0.74 47 -3 47 C-3 32.15 -3 17.3 -3 2 C-2.34 2 -1.68 2 -1 2 C-0.67 1.34 -0.34 0.68 0 0 Z " fill="#EBECEE" transform="translate(67,73)"/>
<path d="M0 0 C4.95 0 9.9 0 15 0 C15 25.74 15 51.48 15 78 C18.3 78 21.6 78 25 78 C25 78.33 25 78.66 25 79 C21.37 79 17.74 79 14 79 C13.505 47.32 13.505 47.32 13 15 C8.71 15 4.42 15 0 15 C0 10.05 0 5.1 0 0 Z " fill="#D0D3D8" transform="translate(225,30)"/>
<path d="M0 0 C4.95 0 9.9 0 15 0 C14.67 26.07 14.34 52.14 14 79 C13.67 79 13.34 79 13 79 C12.505 47.32 12.505 47.32 12 15 C8.04 15 4.08 15 0 15 C0 10.05 0 5.1 0 0 Z " fill="#E1E2E6" transform="translate(195,30)"/>
<path d="M0 0 C0.33 0 0.66 0 1 0 C1 3.63 1 7.26 1 11 C1.99 11.33 2.98 11.66 4 12 C3.01 12.33 2.02 12.66 1 13 C0.67 16.63 0.34 20.26 0 24 C-4.95 24 -9.9 24 -15 24 C-15 19.05 -15 14.1 -15 9 C-10.05 9 -5.1 9 0 9 C0 6.03 0 3.06 0 0 Z " fill="#FEFEFE" transform="translate(150,96)"/>
<path d="M0 0 C3.44652326 2.44128731 4.78056289 3.82966874 5.5625 8 C4.84210667 11.84209775 3.95115708 13.41773756 1 16 C-1.74753301 17.03821185 -4.08220695 17.37555752 -7 17 C-10.04546351 15.03313815 -11.63385671 13.63954428 -12.44140625 10.0234375 C-12.63569916 6.6765855 -12.22224101 4.37040169 -10.5 1.5 C-7.01402996 -0.59158203 -3.89784294 -0.8876276 0 0 Z " fill="#253858" transform="translate(219,10)"/>
<path d="M0 0 C4.95 0 9.9 0 15 0 C15.22786458 2.21354167 15.45572917 4.42708333 15.68359375 6.640625 C15.9273493 8.99145318 15.9273493 8.99145318 16.6875 11.125 C16.790625 11.74375 16.89375 12.3625 17 13 C14.5625 15.75 14.5625 15.75 12 18 C12 17.34 12 16.68 12 16 C8.04 15.67 4.08 15.34 0 15 C0 10.05 0 5.1 0 0 Z " fill="#FEFEFE" transform="translate(315,75)"/>
<path d="M0 0 C5.94 0 11.88 0 18 0 C17.67 26.07 17.34 52.14 17 79 C16.67 79 16.34 79 16 79 C16 55.24 16 31.48 16 7 C12.04 7 8.08 7 4 7 C4 10.63 4 14.26 4 18 C1.49038666 16.3473278 0.37988656 15.6053082 -1 13 C-1.15153008 8.52986256 -0.58594919 4.46222848 0 0 Z " fill="#E0E2E7" transform="translate(330,30)"/>
<path d="M0 0 C0.33 0 0.66 0 1 0 C1.33 19.8 1.66 39.6 2 60 C2.66 60 3.32 60 4 60 C4 64.95 4 69.9 4 75 C-0.95 75 -5.9 75 -11 75 C-11 71.7 -11 68.4 -11 65 C-5.555 64.505 -5.555 64.505 0 64 C0 42.88 0 21.76 0 0 Z " fill="#EAEBED" transform="translate(221,45)"/>
<path d="M0 0 C4.95 0 9.9 0 15 0 C15 4.95 15 9.9 15 15 C10.05 15 5.1 15 0 15 C0 10.05 0 5.1 0 0 Z " fill="#FFFFFF" transform="translate(255,105)"/>
<path d="M0 0 C4.95 0 9.9 0 15 0 C15 4.95 15 9.9 15 15 C10.05 15 5.1 15 0 15 C0 10.05 0 5.1 0 0 Z " fill="#FFFFFF" transform="translate(105,105)"/>
<path d="M0 0 C4.95 0 9.9 0 15 0 C15 4.95 15 9.9 15 15 C10.05 15 5.1 15 0 15 C0 10.05 0 5.1 0 0 Z " fill="#FFFFFF" transform="translate(75,105)"/>
<path d="M0 0 C4.95 0 9.9 0 15 0 C15 4.95 15 9.9 15 15 C10.05 15 5.1 15 0 15 C0 10.05 0 5.1 0 0 Z " fill="#FFFFFF" transform="translate(15,105)"/>
<path d="M0 0 C4.95 0 9.9 0 15 0 C15 4.95 15 9.9 15 15 C10.05 15 5.1 15 0 15 C0 10.05 0 5.1 0 0 Z " fill="#EFEFEF" transform="translate(255,90)"/>
<path d="M0 0 C4.95 0 9.9 0 15 0 C15 4.95 15 9.9 15 15 C10.05 15 5.1 15 0 15 C0 10.05 0 5.1 0 0 Z " fill="#FFFFFF" transform="translate(120,90)"/>
<path d="M0 0 C4.95 0 9.9 0 15 0 C15 4.95 15 9.9 15 15 C10.05 15 5.1 15 0 15 C0 10.05 0 5.1 0 0 Z " fill="#EFEFEF" transform="translate(105,90)"/>
<path d="M0 0 C4.95 0 9.9 0 15 0 C15 4.95 15 9.9 15 15 C10.05 15 5.1 15 0 15 C0 10.05 0 5.1 0 0 Z " fill="#EFEFEF" transform="translate(15,90)"/>
<path d="M0 0 C4.95 0 9.9 0 15 0 C15 4.95 15 9.9 15 15 C10.05 15 5.1 15 0 15 C0 10.05 0 5.1 0 0 Z " fill="#FFFFFF" transform="translate(0,90)"/>
<path d="M0 0 C4.95 0 9.9 0 15 0 C15 4.95 15 9.9 15 15 C10.05 15 5.1 15 0 15 C0 10.05 0 5.1 0 0 Z " fill="#FFFFFF" transform="translate(135,75)"/>
<path d="M0 0 C4.95 0 9.9 0 15 0 C15 4.95 15 9.9 15 15 C10.05 15 5.1 15 0 15 C0 10.05 0 5.1 0 0 Z " fill="#EFEFEF" transform="translate(120,75)"/>
<path d="M0 0 C4.95 0 9.9 0 15 0 C15 4.95 15 9.9 15 15 C10.05 15 5.1 15 0 15 C0 10.05 0 5.1 0 0 Z " fill="#FFFFFF" transform="translate(105,75)"/>
<path d="M0 0 C4.95 0 9.9 0 15 0 C15 4.95 15 9.9 15 15 C10.05 15 5.1 15 0 15 C0 10.05 0 5.1 0 0 Z " fill="#FFFFFF" transform="translate(300,60)"/>
<path d="M0 0 C4.95 0 9.9 0 15 0 C15 4.95 15 9.9 15 15 C10.05 15 5.1 15 0 15 C0 10.05 0 5.1 0 0 Z " fill="#FFFFFF" transform="translate(150,60)"/>
<path d="M0 0 C4.95 0 9.9 0 15 0 C15 4.95 15 9.9 15 15 C10.05 15 5.1 15 0 15 C0 10.05 0 5.1 0 0 Z " fill="#EFEFEF" transform="translate(135,60)"/>
<path d="M0 0 C4.95 0 9.9 0 15 0 C15 4.95 15 9.9 15 15 C10.05 15 5.1 15 0 15 C0 10.05 0 5.1 0 0 Z " fill="#FFFFFF" transform="translate(120,60)"/>
<path d="M0 0 C4.95 0 9.9 0 15 0 C15 4.95 15 9.9 15 15 C10.05 15 5.1 15 0 15 C0 10.05 0 5.1 0 0 Z " fill="#EFEFEF" transform="translate(150,45)"/>
<path d="M0 0 C4.95 0 9.9 0 15 0 C15 4.95 15 9.9 15 15 C10.05 15 5.1 15 0 15 C0 10.05 0 5.1 0 0 Z " fill="#FFFFFF" transform="translate(135,45)"/>
<path d="M0 0 C4.95 0 9.9 0 15 0 C15 4.95 15 9.9 15 15 C10.05 15 5.1 15 0 15 C0 10.05 0 5.1 0 0 Z " fill="#EFEFEF" transform="translate(135,30)"/>
<path d="M0 0 C4.95 0 9.9 0 15 0 C15 4.95 15 9.9 15 15 C10.05 15 5.1 15 0 15 C0 10.05 0 5.1 0 0 Z " fill="#FFFFFF" transform="translate(0,30)"/>
<path d="M0 0 C4.95 0 9.9 0 15 0 C15 4.95 15 9.9 15 15 C10.05 15 5.1 15 0 15 C0 10.05 0 5.1 0 0 Z " fill="#EFEFEF" transform="translate(330,15)"/>
<path d="M0 0 C4.95 0 9.9 0 15 0 C15 4.95 15 9.9 15 15 C10.05 15 5.1 15 0 15 C0 10.05 0 5.1 0 0 Z " fill="#FFFFFF" transform="translate(315,15)"/>
<path d="M0 0 C4.95 0 9.9 0 15 0 C15 4.95 15 9.9 15 15 C10.05 15 5.1 15 0 15 C0 10.05 0 5.1 0 0 Z " fill="#FFFFFF" transform="translate(285,15)"/>
<path d="M0 0 C4.95 0 9.9 0 15 0 C15 4.95 15 9.9 15 15 C10.05 15 5.1 15 0 15 C0 10.05 0 5.1 0 0 Z " fill="#EFEFEF" transform="translate(270,15)"/>
<path d="M0 0 C4.95 0 9.9 0 15 0 C15 4.95 15 9.9 15 15 C10.05 15 5.1 15 0 15 C0 10.05 0 5.1 0 0 Z " fill="#FFFFFF" transform="translate(255,15)"/>
<path d="M0 0 C4.95 0 9.9 0 15 0 C15 4.95 15 9.9 15 15 C10.05 15 5.1 15 0 15 C0 10.05 0 5.1 0 0 Z " fill="#EFEFEF" transform="translate(240,15)"/>
<path d="M0 0 C4.95 0 9.9 0 15 0 C15 4.95 15 9.9 15 15 C10.05 15 5.1 15 0 15 C0 10.05 0 5.1 0 0 Z " fill="#FFFFFF" transform="translate(135,15)"/>
<path d="M0 0 C4.95 0 9.9 0 15 0 C15 4.95 15 9.9 15 15 C10.05 15 5.1 15 0 15 C0 10.05 0 5.1 0 0 Z " fill="#EFEFEF" transform="translate(30,15)"/>
<path d="M0 0 C4.95 0 9.9 0 15 0 C15 4.95 15 9.9 15 15 C10.05 15 5.1 15 0 15 C0 10.05 0 5.1 0 0 Z " fill="#FFFFFF" transform="translate(15,15)"/>
<path d="M0 0 C4.95 0 9.9 0 15 0 C15 4.95 15 9.9 15 15 C10.05 15 5.1 15 0 15 C0 10.05 0 5.1 0 0 Z " fill="#EFEFEF" transform="translate(0,15)"/>
<path d="M0 0 C4.95 0 9.9 0 15 0 C15 4.95 15 9.9 15 15 C10.05 15 5.1 15 0 15 C0 10.05 0 5.1 0 0 Z " fill="#EFEFEF" transform="translate(315,0)"/>
<path d="M0 0 C4.95 0 9.9 0 15 0 C15 4.95 15 9.9 15 15 C10.05 15 5.1 15 0 15 C0 10.05 0 5.1 0 0 Z " fill="#FFFFFF" transform="translate(300,0)"/>
<path d="M0 0 C4.95 0 9.9 0 15 0 C15 4.95 15 9.9 15 15 C10.05 15 5.1 15 0 15 C0 10.05 0 5.1 0 0 Z " fill="#EFEFEF" transform="translate(285,0)"/>
<path d="M0 0 C4.95 0 9.9 0 15 0 C15 4.95 15 9.9 15 15 C10.05 15 5.1 15 0 15 C0 10.05 0 5.1 0 0 Z " fill="#FFFFFF" transform="translate(270,0)"/>
<path d="M0 0 C4.95 0 9.9 0 15 0 C15 4.95 15 9.9 15 15 C10.05 15 5.1 15 0 15 C0 10.05 0 5.1 0 0 Z " fill="#EFEFEF" transform="translate(255,0)"/>
<path d="M0 0 C4.95 0 9.9 0 15 0 C15 4.95 15 9.9 15 15 C10.05 15 5.1 15 0 15 C0 10.05 0 5.1 0 0 Z " fill="#FFFFFF" transform="translate(240,0)"/>
<path d="M0 0 C4.95 0 9.9 0 15 0 C15 4.95 15 9.9 15 15 C10.05 15 5.1 15 0 15 C0 10.05 0 5.1 0 0 Z " fill="#EFEFEF" transform="translate(225,0)"/>
<path d="M0 0 C4.95 0 9.9 0 15 0 C15 4.95 15 9.9 15 15 C10.05 15 5.1 15 0 15 C0 10.05 0 5.1 0 0 Z " fill="#FFFFFF" transform="translate(150,0)"/>
<path d="M0 0 C4.95 0 9.9 0 15 0 C15 4.95 15 9.9 15 15 C10.05 15 5.1 15 0 15 C0 10.05 0 5.1 0 0 Z " fill="#EFEFEF" transform="translate(135,0)"/>
<path d="M0 0 C4.95 0 9.9 0 15 0 C15 4.95 15 9.9 15 15 C10.05 15 5.1 15 0 15 C0 10.05 0 5.1 0 0 Z " fill="#FFFFFF" transform="translate(30,0)"/>
<path d="M0 0 C4.95 0 9.9 0 15 0 C15 4.95 15 9.9 15 15 C10.05 15 5.1 15 0 15 C0 10.05 0 5.1 0 0 Z " fill="#FFFFFF" transform="translate(0,0)"/>
<path d="M0 0 C4.95 0 9.9 0 15 0 C16.07421875 8.30078125 16.07421875 8.30078125 16 11 C14.5625 12.65625 14.5625 12.65625 13 14 C12.2730774 17.10839021 12.2730774 17.10839021 12 20 C11.67 20 11.34 20 11 20 C11 18.35 11 16.7 11 15 C7.37 15 3.74 15 0 15 C0 10.05 0 5.1 0 0 Z " fill="#EDEDED" transform="translate(195,0)"/>
<path d="M0 0 C4.29 0 8.58 0 13 0 C13 4.95 13 9.9 13 15 C8.05 15 3.1 15 -2 15 C-2 10.71 -2 6.42 -2 2 C-1.34 2 -0.68 2 0 2 C0 1.34 0 0.68 0 0 Z " fill="#FEFEFE" transform="translate(92,90)"/>
<path d="M0 0 C0.33 0 0.66 0 1 0 C1 3.3 1 6.6 1 10 C0.67 9.34 0.34 8.68 0 8 C-0.99 8 -1.98 8 -3 8 C-3 12.95 -3 17.9 -3 23 C-7.95 23 -12.9 23 -18 23 C-18.33 19.7 -18.66 16.4 -19 13 C-18.26394531 12.75765625 -17.52789062 12.5153125 -16.76953125 12.265625 C-9.00268998 9.59801769 -4.10058728 7.38105711 0 0 Z " fill="#FCFCFC" transform="translate(333,97)"/>
<path d="M0 0 C0.66 0.99 1.32 1.98 2 3 C2.53625 3.70125 3.0725 4.4025 3.625 5.125 C5.58790053 9.22924655 5.20256878 12.47596392 5 17 C0.05 17 -4.9 17 -10 17 C-10 12.05 -10 7.1 -10 2 C-6.7 2 -3.4 2 0 2 C0 1.34 0 0.68 0 0 Z " fill="#EEEEEF" transform="translate(40,103)"/>
<path d="M0 0 C2 2 2 2 2.1953125 5.4765625 C2.18201493 6.85950968 2.15816232 8.24238654 2.125 9.625 C2.11597656 10.33140625 2.10695312 11.0378125 2.09765625 11.765625 C2.07407603 13.51056098 2.03820461 15.25532295 2 17 C-2.62 17 -7.24 17 -12 17 C-12 12.05 -12 7.1 -12 2 C-8.04 2 -4.08 2 0 2 C0 1.34 0 0.68 0 0 Z " fill="#FEFEFE" transform="translate(177,43)"/>
<path d="M0 0 C4.62 0 9.24 0 14 0 C14 4.95 14 9.9 14 15 C9.38 15 4.76 15 0 15 C0 10.05 0 5.1 0 0 Z " fill="#EFEFEF" transform="translate(121,45)"/>
<path d="M0 0 C4.62 0 9.24 0 14 0 C14 4.95 14 9.9 14 15 C9.38 15 4.76 15 0 15 C0 10.05 0 5.1 0 0 Z " fill="#EFEFEF" transform="translate(121,15)"/>
<path d="M0 0 C4.62 0 9.24 0 14 0 C14 4.95 14 9.9 14 15 C9.38 15 4.76 15 0 15 C0 10.05 0 5.1 0 0 Z " fill="#EFEFEF" transform="translate(165,60)"/>
<path d="M0 0 C4.29 0 8.58 0 13 0 C13 6.27 13 12.54 13 19 C12.67 17.68 12.34 16.36 12 15 C8.04 15 4.08 15 0 15 C0 10.05 0 5.1 0 0 Z " fill="#FFFFFF" transform="translate(165,15)"/>
<path d="M0 0 C4.29 0 8.58 0 13 0 C13 4.95 13 9.9 13 15 C8.71 15 4.42 15 0 15 C0 10.05 0 5.1 0 0 Z " fill="#EFEFEF" transform="translate(225,90)"/>
<path d="M0 0 C4.29 0 8.58 0 13 0 C13 4.95 13 9.9 13 15 C8.71 15 4.42 15 0 15 C0 10.05 0 5.1 0 0 Z " fill="#EFEFEF" transform="translate(92,75)"/>
<path d="M0 0 C4.29 0 8.58 0 13 0 C13 4.95 13 9.9 13 15 C8.71 15 4.42 15 0 15 C0 10.05 0 5.1 0 0 Z " fill="#EFEFEF" transform="translate(225,60)"/>
<path d="M0 0 C19.8 0 39.6 0 60 0 C60 2.31 60 4.62 60 7 C59.61994308 6.51391769 59.23988617 6.02783539 58.84831238 5.52702332 C56.3215022 3.43944434 54.68173372 3.60355114 51.42700195 3.56762695 C49.71556755 3.53793571 49.71556755 3.53793571 47.96955872 3.50764465 C46.73823715 3.50125473 45.50691559 3.49486481 44.23828125 3.48828125 C42.97735153 3.47033005 41.71642181 3.45237885 40.4172821 3.43388367 C37.06844486 3.38884576 33.7199758 3.35657259 30.37097168 3.33044434 C26.95225714 3.30064234 23.5337749 3.2541109 20.11523438 3.20898438 C13.41026329 3.12388319 6.70527706 3.05560169 0 3 C0 2.01 0 1.02 0 0 Z " fill="#FFFFFF" transform="translate(60,0)"/>
<path d="M0 0 C0.33 0 0.66 0 1 0 C1.19511725 2.74965228 1.38136433 5.49942132 1.5625 8.25 C1.61857422 9.02730469 1.67464844 9.80460937 1.73242188 10.60546875 C1.78076172 11.35957031 1.82910156 12.11367187 1.87890625 12.890625 C1.9260376 13.58188477 1.97316895 14.27314453 2.02172852 14.98535156 C2 17 2 17 1 21 C-2.96 21 -6.92 21 -11 21 C-11 16.05 -11 11.1 -11 6 C-7.7 6 -4.4 6 -1 6 C-0.67 4.02 -0.34 2.04 0 0 Z " fill="#EAEBEC" transform="translate(281,69)"/>
<path d="M0 0 C1.7634375 0.7115625 1.7634375 0.7115625 3.5625 1.4375 C7.40103259 2.88806847 10.92740191 3.57577103 15 4 C15 7.63 15 11.26 15 15 C10.05 15 5.1 15 0 15 C0 10.05 0 5.1 0 0 Z " fill="#EFEFEF" transform="translate(105,60)"/>
<path d="M0 0 C3.96 0 7.92 0 12 0 C12 4.95 12 9.9 12 15 C8.04 15 4.08 15 0 15 C0 10.05 0 5.1 0 0 Z " fill="#EFEFEF" transform="translate(195,90)"/>
<path d="M0 0 C3.96 0 7.92 0 12 0 C12 4.95 12 9.9 12 15 C8.04 15 4.08 15 0 15 C0 10.05 0 5.1 0 0 Z " fill="#EFEFEF" transform="translate(195,60)"/>
<path d="M0 0 C3.96 0 7.92 0 12 0 C12.10349817 6.41688675 11.74507544 12.62694402 11 19 C10.67 17.68 10.34 16.36 10 15 C6.7 15 3.4 15 0 15 C0 10.05 0 5.1 0 0 Z " fill="#FEFEFE" transform="translate(270,60)"/>
<path d="M0 0 C5.61 0.33 11.22 0.66 17 1 C16.34 1.66 15.68 2.32 15 3 C14.75746187 5.21072977 14.75746187 5.21072977 14.875 7.625 C14.91625 9.06875 14.9575 10.5125 15 12 C10.05 12 5.1 12 0 12 C0 8.04 0 4.08 0 0 Z " fill="#ECECED" transform="translate(150,108)"/>
<path d="M0 0 C0.99 0 1.98 0 3 0 C3.33 1.32 3.66 2.64 4 4 C7.63 4.33 11.26 4.66 15 5 C15 8.3 15 11.6 15 15 C10.05 15 5.1 15 0 15 C0 10.05 0 5.1 0 0 Z " fill="#EFEFEF" transform="translate(330,105)"/>
<path d="M0 0 C4.95 0 9.9 0 15 0 C15 4.95 15 9.9 15 15 C12.69 15 10.38 15 8 15 C7.67 15.99 7.34 16.98 7 18 C7 14.04 7 10.08 7 6 C4.03 6 1.06 6 -2 6 C-1.34 5.67 -0.68 5.34 0 5 C0 3.35 0 1.7 0 0 Z " fill="#FFFFFF" transform="translate(270,30)"/>
<path d="M0 0 C0.66 0 1.32 0 2 0 C2 4.95 2 9.9 2 15 C-2.95 15 -7.9 15 -13 15 C-13 11.7 -13 8.4 -13 5 C-7.06 4.505 -7.06 4.505 -1 4 C-0.67 2.68 -0.34 1.36 0 0 Z " fill="#EFEFEF" transform="translate(253,105)"/>
<path d="M0 0 C6.55360202 1.092267 10.37908024 2.14803425 15 7 C15.9375 9.1875 15.9375 9.1875 16 11 C15.67 11.66 15.34 12.32 15 13 C10.05 13 5.1 13 0 13 C0 8.71 0 4.42 0 0 Z " fill="#FDFDFE" transform="translate(315,47)"/>
<path d="M0 0 C2.31284456 0.14026283 4.62527591 0.28735558 6.9375 0.4375 C8.86916016 0.55931641 8.86916016 0.55931641 10.83984375 0.68359375 C14 1 14 1 15 2 C15.14193337 5.00331018 15.04236378 7.99217134 15 11 C10.05 11 5.1 11 0 11 C0 7.37 0 3.74 0 0 Z " fill="#EEEFEF" transform="translate(300,109)"/>
<path d="M0 0 C0.33 0 0.66 0 1 0 C1 28.05 1 56.1 1 85 C-4.94 85 -10.88 85 -17 85 C-17 84.34 -17 83.68 -17 83 C-12.05 83 -7.1 83 -2 83 C-2 79.7 -2 76.4 -2 73 C-5.96 73 -9.92 73 -14 73 C-14 72.67 -14 72.34 -14 72 C-9.38 72 -4.76 72 0 72 C0 48.24 0 24.48 0 0 Z " fill="#FEFEFE" transform="translate(347,37)"/>
<path d="M0 0 C3.3 0 6.6 0 10 0 C10 4.95 10 9.9 10 15 C6.7 15 3.4 15 0 15 C0 10.05 0 5.1 0 0 Z " fill="#FFFFFF" transform="translate(65,90)"/>
<path d="M0 0 C4.95 0 9.9 0 15 0 C15 1.65 15 3.3 15 5 C13.20856793 5.9795958 11.41684696 6.9586633 9.625 7.9375 C8.62726563 8.48277344 7.62953125 9.02804688 6.6015625 9.58984375 C5.07929654 10.4149759 3.54871217 11.22564391 2 12 C1.34 11.67 0.68 11.34 0 11 C0 7.37 0 3.74 0 0 Z " fill="#EDEEEE" transform="translate(255,30)"/>
<path d="M0 0 C4.95 0 9.9 0 15 0 C15 3.63 15 7.26 15 11 C12 11 12 11 9.875 9.625 C6.07272138 7.475886 2.26300458 6.78944529 -2 6 C-1.34 5.34 -0.68 4.68 0 4 C0 2.68 0 1.36 0 0 Z " fill="#ECECED" transform="translate(315,30)"/>
<path d="M0 0 C4.95 0 9.9 0 15 0 C15.33 1.65 15.66 3.3 16 5 C13.89627599 5.33611568 11.79200343 5.66879946 9.6875 6 C7.92986328 6.2784375 7.92986328 6.2784375 6.13671875 6.5625 C3 7 3 7 0 7 C0 4.69 0 2.38 0 0 Z " fill="#FBFBFC" transform="translate(300,30)"/>
<path d="M0 0 C2 3 2 3 3.375 6.375 C4.90769515 9.79408917 6.63054302 12.14031054 9 15 C9 15.66 9 16.32 9 17 C5.7 17 2.4 17 -1 17 C-1.02691685 14.54159395 -1.04679802 12.08348118 -1.0625 9.625 C-1.07087891 8.92632812 -1.07925781 8.22765625 -1.08789062 7.5078125 C-1.11328125 2.2265625 -1.11328125 2.2265625 0 0 Z " fill="#EDEEF0" transform="translate(94,43)"/>
<path d="M0 0 C0.33 0 0.66 0 1 0 C1 1.98 1 3.96 1 6 C2.65 6 4.3 6 6 6 C6 11.28 6 16.56 6 22 C5.34 22.33 4.68 22.66 4 23 C1.24664582 16.89473639 -0.14415583 11.96493416 -0.0625 5.1875 C-0.05347656 4.21167969 -0.04445313 3.23585938 -0.03515625 2.23046875 C-0.02355469 1.49441406 -0.01195312 0.75835937 0 0 Z " fill="#FBFBFC" transform="translate(294,69)"/>
<path d="M0 0 C4.29 0 8.58 0 13 0 C11 5 11 5 8.1875 6.875 C4.82789817 8.06074182 3.33483986 8.07891878 0 7 C0 4.69 0 2.38 0 0 Z " fill="#EEEFEF" transform="translate(315,90)"/>
<path d="M0 0 C0.99 0 1.98 0 3 0 C3.19335938 0.66386719 3.38671875 1.32773437 3.5859375 2.01171875 C5.52751352 8.59789309 5.52751352 8.59789309 8 15 C5.36 15 2.72 15 0 15 C0 10.05 0 5.1 0 0 Z " fill="#FDFDFD" transform="translate(0,60)"/>
<path d="M0 0 C2.475 0.495 2.475 0.495 5 1 C5.70757095 9.77387981 6.36752652 18.2478303 5 27 C4.67 27 4.34 27 4 27 C3.9498877 26.32420898 3.89977539 25.64841797 3.84814453 24.95214844 C3.61574397 21.88403941 3.37051349 18.81708639 3.125 15.75 C3.04636719 14.68652344 2.96773437 13.62304688 2.88671875 12.52734375 C2.80292969 11.50253906 2.71914063 10.47773437 2.6328125 9.421875 C2.52283936 8.00793457 2.52283936 8.00793457 2.41064453 6.56542969 C2.00053048 4.00331406 1.29117243 2.23313097 0 0 Z " fill="#F3F5F8" transform="translate(61,58)"/>
<path d="M0 0 C0.33 0 0.66 0 1 0 C1 2.64 1 5.28 1 8 C-3.95 8 -8.9 8 -14 8 C-13.67 7.01 -13.34 6.02 -13 5 C-12.0925 5.061875 -11.185 5.12375 -10.25 5.1875 C-6.63011615 4.97866055 -5.70449166 4.2382 -3 2 C-2.01 2 -1.02 2 0 2 C0 1.34 0 0.68 0 0 Z " fill="#EDEDEE" transform="translate(224,22)"/>
<path d="M0 0 C2.97 0 5.94 0 9 0 C9 3.96 9 7.92 9 12 C8.67 12 8.34 12 8 12 C7.67 9.69 7.34 7.38 7 5 C4.69 5 2.38 5 0 5 C0 3.35 0 1.7 0 0 Z " fill="#EDEEEF" transform="translate(30,85)"/>
<path d="M0 0 C4.95 0 9.9 0 15 0 C15 2.31 15 4.62 15 7 C14.62230469 6.51917969 14.24460937 6.03835937 13.85546875 5.54296875 C11.35468595 3.46337042 9.52693196 3.50158423 6.3125 3.3125 C5.31863281 3.24675781 4.32476562 3.18101563 3.30078125 3.11328125 C2.54152344 3.07589844 1.78226562 3.03851563 1 3 C0.67 2.01 0.34 1.02 0 0 Z " fill="#EFF0F0" transform="translate(105,0)"/>
<path d="M0 0 C0.99 0 1.98 0 3 0 C3 4.95 3 9.9 3 15 C2.34 15 1.68 15 1 15 C0.67 16.32 0.34 17.64 0 19 C0 12.73 0 6.46 0 0 Z " fill="#FFFFFF" transform="translate(252,90)"/>
<path d="M0 0 C0.99 0 1.98 0 3 0 C3 4.95 3 9.9 3 15 C2.34 15 1.68 15 1 15 C0.67 15.99 0.34 16.98 0 18 C0 12.06 0 6.12 0 0 Z " fill="#FFFFFF" transform="translate(222,90)"/>
<path d="M0 0 C4.95 0 9.9 0 15 0 C15.33 0.99 15.66 1.98 16 3 C10.39 3 4.78 3 -1 3 C-0.67 2.01 -0.34 1.02 0 0 Z " fill="#FFFFFF" transform="translate(90,0)"/>
<path d="M0 0 C0.99 0 1.98 0 3 0 C3 4.95 3 9.9 3 15 C2.01 15 1.02 15 0 15 C0 10.05 0 5.1 0 0 Z " fill="#EFEFEF" transform="translate(345,0)"/>
<path d="M0 0 C4.95 0 9.9 0 15 0 C14.67 0.99 14.34 1.98 14 3 C9.71 3 5.42 3 1 3 C0.67 2.01 0.34 1.02 0 0 Z " fill="#F1F1F1" transform="translate(75,0)"/>
<path d="M0 0 C0.99 0 1.98 0 3 0 C4.25 7.625 4.25 7.625 2 11 C1.01 11.495 1.01 11.495 0 12 C0 8.04 0 4.08 0 0 Z " fill="#E9EAEB" transform="translate(330,75)"/>
<path d="M0 0 C0.66 0 1.32 0 2 0 C2 4.95 2 9.9 2 15 C0.68 14.67 -0.64 14.34 -2 14 C-1.34 13.67 -0.68 13.34 0 13 C0 8.71 0 4.42 0 0 Z " fill="#EEEEEF" transform="translate(193,75)"/>
<path d="M0 0 C0.99 0 1.98 0 3 0 C3.309375 0.94875 3.61875 1.8975 3.9375 2.875 C4.87394742 5.86080408 4.87394742 5.86080408 6 8 C4.02 8 2.04 8 0 8 C0 5.36 0 2.72 0 0 Z " fill="#EAEBEC" transform="translate(285,97)"/>
<path d="M0 0 C1.90318884 2.85478326 2.4619099 4.41941308 3.125 7.6875 C3.29257812 8.49574219 3.46015625 9.30398437 3.6328125 10.13671875 C3.75398438 10.75160156 3.87515625 11.36648437 4 12 C2.68 12 1.36 12 0 12 C0 8.04 0 4.08 0 0 Z " fill="#F7F9FC" transform="translate(30,33)"/>
<path d="M0 0 C0.99 0 1.98 0 3 0 C3 2.31 3 4.62 3 7 C2.01 7 1.02 7 0 7 C0 4.69 0 2.38 0 0 Z " fill="#EFEFEF" transform="translate(345,30)"/>
<path d="M0 0 C0.33 0 0.66 0 1 0 C1 1.98 1 3.96 1 6 C0.01 6 -0.98 6 -2 6 C-2.33 6.66 -2.66 7.32 -3 8 C-2.25 2.25 -2.25 2.25 0 0 Z " fill="#F5F6F7" transform="translate(299,54)"/>
<path d="M0 0 C0 3.51716303 -0.82445585 4.37121748 -3 7 C-4 6 -4 6 -4.0625 3.4375 C-4.041875 2.633125 -4.02125 1.82875 -4 1 C-2.68 0.67 -1.36 0.34 0 0 Z " fill="#F7F7F9" transform="translate(289,44)"/>
</svg>
